<?xml version="1.0" encoding="UTF-8"?>
<svg version="1.1" xmlns="http://www.w3.org/2000/svg" width="90" height="110">
<path d="M0 0 C1.58367747 0.14204741 3.16693318 0.28880153 4.75 0.4375 C5.63171875 0.51871094 6.5134375 0.59992187 7.421875 0.68359375 C11.67775148 1.20590586 14.17777235 1.64020518 17 5 C17.33 5.66 17.66 6.32 18 7 C20.51582233 8.25791116 22.30798151 8.14205205 25.12109375 8.17578125 C26.64766602 8.21155273 26.64766602 8.21155273 28.20507812 8.24804688 C30.35591925 8.29093374 32.50702347 8.32222884 34.65820312 8.34179688 C35.67720703 8.36951172 36.69621094 8.39722656 37.74609375 8.42578125 C38.68122803 8.44036377 39.6163623 8.45494629 40.57983398 8.4699707 C43 9 43 9 44.78540039 10.53027344 C46.48417141 13.98449809 46.57647944 17.31228312 46.6875 21.08984375 C46.71730957 21.87138321 46.74711914 22.65292267 46.77783203 23.45814514 C46.83545928 25.10783826 46.88542028 26.75781468 46.92822266 28.40795898 C46.99970124 30.92697107 47.11382118 33.44171011 47.23046875 35.95898438 C47.28126052 37.56502361 47.32952176 39.17114527 47.375 40.77734375 C47.41326904 41.52644516 47.45153809 42.27554657 47.4909668 43.04734802 C47.5520724 47.08172495 47.19975013 48.7569188 44.6027832 51.91723633 C42.4975034 53.60189462 40.42548925 55.24825558 38.1875 56.75 C37.135625 57.4925 36.08375 58.235 35 59 C35 59.33 35 59.66 35 60 C30.08876411 60.09898615 25.17811062 60.17152247 20.26611328 60.21972656 C18.59576298 60.23982393 16.92548287 60.26710683 15.25537109 60.30175781 C12.8523628 60.35036119 10.45028566 60.37298656 8.046875 60.390625 C7.30193787 60.41127014 6.55700073 60.43191528 5.78948975 60.45318604 C2.34921693 60.45466998 0.36320678 60.25960271 -2.46923828 58.23510742 C-4.11089475 55.83807952 -4.50549832 54.71212857 -4.5390625 51.84765625 C-4.56226563 51.07099609 -4.58546875 50.29433594 -4.609375 49.49414062 C-4.61453125 48.69169922 -4.6196875 47.88925781 -4.625 47.0625 C-4.70954883 41.82469991 -4.94228309 37.87182778 -7 33 C-7.23046875 29.84375 -7.23046875 29.84375 -7.1875 26.5 C-7.18105469 25.3965625 -7.17460937 24.293125 -7.16796875 23.15625 C-7 20 -7 20 -6.44921875 17.28125 C-5.82228782 14.8782524 -5.82228782 14.8782524 -6.625 12 C-7 9 -7 9 -5.75 6.1875 C-4 4 -4 4 -1 3 C-0.67 2.01 -0.34 1.02 0 0 Z M-5 6 C-4 8 -4 8 -4 8 Z M3 7 C1.37492804 9.8331162 1.37492804 9.8331162 0 13 C0.33 13.99 0.66 14.98 1 16 C1.33 15.67 1.66 15.34 2 15 C9.52238806 14.76119403 9.52238806 14.76119403 12 16 C12 13.36 12 10.72 12 8 C9.03 7.67 6.06 7.34 3 7 Z M0 8 C1 10 1 10 1 10 Z M-1 10 C0 13 0 13 0 13 Z M19 15 C19 15.33 19 15.66 19 16 C25.6 16 32.2 16 39 16 C39 15.67 39 15.34 39 15 C32.4 15 25.8 15 19 15 Z M3 16 C3 16.33 3 16.66 3 17 C4.98 17 6.96 17 9 17 C9 16.67 9 16.34 9 16 C7.02 16 5.04 16 3 16 Z M18 17 C18.33 17.99 18.66 18.98 19 20 C19.33 19.01 19.66 18.02 20 17 C19.34 17 18.68 17 18 17 Z M40 15 C39.67 15.66 39.34 16.32 39 17 C29.595 17.495 29.595 17.495 20 18 C20 18.33 20 18.66 20 19 C25.28 19 30.56 19 36 19 C36 19.99 36 20.98 36 22 C30.72 22 25.44 22 20 22 C20 23.65 20 25.3 20 27 C25.28 27 30.56 27 36 27 C36 28.32 36 29.64 36 31 C30.72 30.67 25.44 30.34 20 30 C19.67 31.65 19.34 33.3 19 35 C18.67 34.34 18.34 33.68 18 33 C16.35930718 34.02881544 16.35930718 34.02881544 15 36 C14.75476577 38.5924762 14.67133061 40.91866061 14.75 43.5 C14.75515625 44.17675781 14.7603125 44.85351562 14.765625 45.55078125 C14.81404782 48.61957737 15.02361064 51.07083192 16 54 C20.95 54 25.9 54 31 54 C31.66 50.7 32.32 47.4 33 44 C35.875 43.375 35.875 43.375 39 43 C39.66 43.66 40.32 44.32 41 45 C41 35.1 41 25.2 41 15 C40.67 15 40.34 15 40 15 Z M4 25 C5 28 5 28 5 28 Z M2 37 C1.95875 38.27875 1.9175 39.5575 1.875 40.875 C1.85179687 41.59429687 1.82859375 42.31359375 1.8046875 43.0546875 C1.81668311 45.23863645 1.81668311 45.23863645 4 47 C3.67 43.7 3.34 40.4 3 37 C2.67 37 2.34 37 2 37 Z M4 37 C4 37.33 4 37.66 4 38 C5.98 38 7.96 38 10 38 C10 37.67 10 37.34 10 37 C8.02 37 6.04 37 4 37 Z M4 39 C4 40.65 4 42.3 4 44 C4.33 44 4.66 44 5 44 C5 42.35 5 40.7 5 39 C4.67 39 4.34 39 4 39 Z M7 39 C6.67 41.97 6.34 44.94 6 48 C6.66 47.67 7.32 47.34 8 47 C8 44.36 8 41.72 8 39 C7.67 39 7.34 39 7 39 Z M9 39 C9 43.62 9 48.24 9 53 C7.02 53 5.04 53 3 53 C3 53.33 3 53.66 3 54 C5.31 54 7.62 54 10 54 C10 49.05 10 44.1 10 39 C9.67 39 9.34 39 9 39 Z M33 44 C33 44.33 33 44.66 33 45 C34.98 45 36.96 45 39 45 C39 44.67 39 44.34 39 44 C37.02 44 35.04 44 33 44 Z M4 48 C3.67 49.32 3.34 50.64 3 52 C4.65 52 6.3 52 8 52 C7.67 50.68 7.34 49.36 7 48 C7 48.99 7 49.98 7 51 C6.34 51 5.68 51 5 51 C4.67 50.01 4.34 49.02 4 48 Z " fill="#E4E4E4" transform="translate(16,32)"/>
<path d="M0 0 C0.33 0.66 0.66 1.32 1 2 C3.64 2 6.28 2 9 2 C9 2.33 9 2.66 9 3 C6.36 3 3.72 3 1 3 C0.957279 4.66611905 0.95936168 6.33382885 1 8 C1.33 8.33 1.66 8.66 2 9 C2.07313567 11.53049402 2.09247527 14.03304837 2.0625 16.5625 C2.05798828 17.27341797 2.05347656 17.98433594 2.04882812 18.71679688 C2.03700864 20.47790013 2.01907263 22.23896036 2 24 C1.01 24.33 0.02 24.66 -1 25 C-1.33 31.93 -1.66 38.86 -2 46 C4.6 46 11.2 46 18 46 C17.34 45.34 16.68 44.68 16 44 C15.53623188 36.69565217 15.53623188 36.69565217 18 33 C19.98 33 21.96 33 24 33 C24 28.38 24 23.76 24 19 C24.33 19 24.66 19 25 19 C25.09087891 17.51886719 25.09087891 17.51886719 25.18359375 16.0078125 C25.26738281 14.72648437 25.35117187 13.44515625 25.4375 12.125 C25.51871094 10.84882812 25.59992187 9.57265625 25.68359375 8.2578125 C26 5 26 5 27 3 C27.66 3 28.32 3 29 3 C29.19902395 7.83781292 29.3434976 12.67320384 29.43945312 17.51416016 C29.47947914 19.15748637 29.53392218 20.80053134 29.60351562 22.44287109 C30.16652459 36.07927942 30.16652459 36.07927942 27.25390625 40.875 C22.29622603 45.89543567 18.72746024 47.14884713 11.8046875 47.31640625 C10.51030762 47.35451416 9.21592773 47.39262207 7.88232422 47.43188477 C5.40369873 47.49653931 5.40369873 47.49653931 2.875 47.5625 C-2.36375 47.706875 -7.6025 47.85125 -13 48 C3.335 48.495 3.335 48.495 20 49 C20 49.33 20 49.66 20 50 C15.05209823 50.0493651 10.10433917 50.08570269 5.15625 50.10986328 C3.47230534 50.11993317 1.78837821 50.13358988 0.10449219 50.15087891 C-2.31319501 50.17508426 -4.73065143 50.18647296 -7.1484375 50.1953125 C-7.9036972 50.20563507 -8.65895691 50.21595764 -9.43710327 50.22659302 C-11.2929398 50.22699318 -13.1481928 50.12222716 -15 50 C-15.66 49.34 -16.32 48.68 -17 48 C-16.63110352 46.15917969 -16.63110352 46.15917969 -16 44 C-15.92181364 42.48604304 -15.89210091 40.96906493 -15.90234375 39.453125 C-15.90556641 38.60878906 -15.90878906 37.76445313 -15.91210938 36.89453125 C-15.92048828 36.02183594 -15.92886719 35.14914063 -15.9375 34.25 C-15.94201172 33.36183594 -15.94652344 32.47367188 -15.95117188 31.55859375 C-15.962926 29.37232671 -15.97935751 27.18619821 -16 25 C-17.32 24.67 -18.64 24.34 -20 24 C-20.02696365 22.20841511 -20.04637917 20.41671527 -20.0625 18.625 C-20.07410156 17.62726562 -20.08570313 16.62953125 -20.09765625 15.6015625 C-20 13 -20 13 -19 11 C-18.01 10.67 -17.02 10.34 -16 10 C-15.67 9.34 -15.34 8.68 -15 8 C-10.71 8 -6.42 8 -2 8 C-1.34 5.36 -0.68 2.72 0 0 Z M-11 15 C-10 18 -10 18 -10 18 Z M-13 27 C-13.04125 28.27875 -13.0825 29.5575 -13.125 30.875 C-13.14820313 31.59429687 -13.17140625 32.31359375 -13.1953125 33.0546875 C-13.18331689 35.23863645 -13.18331689 35.23863645 -11 37 C-11.33 33.7 -11.66 30.4 -12 27 C-12.33 27 -12.66 27 -13 27 Z M-11 27 C-11 27.33 -11 27.66 -11 28 C-9.02 28 -7.04 28 -5 28 C-5 27.67 -5 27.34 -5 27 C-6.98 27 -8.96 27 -11 27 Z M-11 29 C-11 30.65 -11 32.3 -11 34 C-10.67 34 -10.34 34 -10 34 C-10 32.35 -10 30.7 -10 29 C-10.33 29 -10.66 29 -11 29 Z M-8 29 C-8.33 31.97 -8.66 34.94 -9 38 C-8.34 37.67 -7.68 37.34 -7 37 C-7 34.36 -7 31.72 -7 29 C-7.33 29 -7.66 29 -8 29 Z M-6 29 C-6 33.62 -6 38.24 -6 43 C-7.98 43 -9.96 43 -12 43 C-12 43.33 -12 43.66 -12 44 C-9.69 44 -7.38 44 -5 44 C-5 39.05 -5 34.1 -5 29 C-5.33 29 -5.66 29 -6 29 Z M18 34 C18 34.33 18 34.66 18 35 C19.98 35 21.96 35 24 35 C24 34.67 24 34.34 24 34 C22.02 34 20.04 34 18 34 Z M-11 38 C-11.33 39.32 -11.66 40.64 -12 42 C-10.35 42 -8.7 42 -7 42 C-7.33 40.68 -7.66 39.36 -8 38 C-8 38.99 -8 39.98 -8 41 C-8.66 41 -9.32 41 -10 41 C-10.33 40.01 -10.66 39.02 -11 38 Z " fill="#F7F7F7" transform="translate(31,42)"/>
<path d="M0 0 C0.99 0 1.98 0 3 0 C4.3515625 1.390625 4.3515625 1.390625 5.625 3.25 C6.26308594 4.15492187 6.26308594 4.15492187 6.9140625 5.078125 C9.390703 9.46124415 9.24548479 14.06768038 9.3125 19 C9.34150391 19.7115625 9.37050781 20.423125 9.40039062 21.15625 C9.44462872 24.80419151 9.3082901 26.61836428 6.98046875 29.5 C6.32691406 29.995 5.67335937 30.49 5 31 C5.50789063 30.72285156 6.01578125 30.44570313 6.5390625 30.16015625 C10.7077298 27.9665317 14.24131553 26.47586845 19 26 C17.52874208 30.41377376 14.55233719 31.50366753 10.64453125 33.7734375 C7.28306402 35.33252275 4.65675904 35.37313868 1 35 C-0.485 35.495 -0.485 35.495 -2 36 C-3.65 35.67 -5.3 35.34 -7 35 C-7.33 31.04 -7.66 27.08 -8 23 C-4.23375329 21.74458443 -2.62811066 22.62938042 1 24 C0.505 23.2575 0.01 22.515 -0.5 21.75 C-2 19 -2 19 -2 15 C-2.598125 14.731875 -3.19625 14.46375 -3.8125 14.1875 C-5.99813575 13.00101202 -7.2583417 11.7416583 -9 10 C-11.09989652 8.82425289 -11.09989652 8.82425289 -13 8 C-13.99 9.485 -13.99 9.485 -15 11 C-14.34 11.33 -13.68 11.66 -13 12 C-13.99 12 -14.98 12 -16 12 C-16.33 12.99 -16.66 13.98 -17 15 C-17.33 15.66 -17.66 16.32 -18 17 C-22.29 17 -26.58 17 -31 17 C-31.36820084 9.63598326 -31.36820084 9.63598326 -29.625 6.625 C-28.41666667 5.41666667 -27.20833333 4.20833333 -26 3 C-25.67 2.01 -25.34 1.02 -25 0 C-17.00415161 -6.25762048 -8.60075962 -4.12119732 0 0 Z M-14 3 C-13 7 -13 7 -13 7 Z M-1 17 C0 19 0 19 0 19 Z M2 22 C3 25 3 25 3 25 Z " fill="#F8F8F8" transform="translate(71,23)"/>
<path d="M0 0 C0.98613281 0.00322266 1.97226562 0.00644531 2.98828125 0.00976562 C4.02082031 0.01814453 5.05335937 0.02652344 6.1171875 0.03515625 C7.67759766 0.04192383 7.67759766 0.04192383 9.26953125 0.04882812 C11.84377437 0.06063658 14.41798803 0.0785724 16.9921875 0.09765625 C16.9921875 4.05765625 16.9921875 8.01765625 16.9921875 12.09765625 C16.6621875 12.09765625 16.3321875 12.09765625 15.9921875 12.09765625 C15.9921875 8.79765625 15.9921875 5.49765625 15.9921875 2.09765625 C14.6721875 2.42765625 13.3521875 2.75765625 11.9921875 3.09765625 C12.6521875 4.74765625 13.3121875 6.39765625 13.9921875 8.09765625 C11.53378145 8.1245731 9.07566868 8.14445427 6.6171875 8.16015625 C5.91851562 8.16853516 5.21984375 8.17691406 4.5 8.18554688 C-0.78125 8.2109375 -0.78125 8.2109375 -3.0078125 7.09765625 C-3.0078125 8.74765625 -3.0078125 10.39765625 -3.0078125 12.09765625 C2.2721875 12.09765625 7.5521875 12.09765625 12.9921875 12.09765625 C12.9921875 13.41765625 12.9921875 14.73765625 12.9921875 16.09765625 C8.0421875 16.09765625 3.0921875 16.09765625 -2.0078125 16.09765625 C-2.0078125 17.41765625 -2.0078125 18.73765625 -2.0078125 20.09765625 C-2.9978125 20.09765625 -3.9878125 20.09765625 -5.0078125 20.09765625 C-5.3378125 23.06765625 -5.6678125 26.03765625 -6.0078125 29.09765625 C-6.3378125 29.09765625 -6.6678125 29.09765625 -7.0078125 29.09765625 C-7.0078125 31.40765625 -7.0078125 33.71765625 -7.0078125 36.09765625 C-6.02039062 36.14664063 -5.03296875 36.195625 -4.015625 36.24609375 C-2.73429687 36.32085937 -1.45296875 36.395625 -0.1328125 36.47265625 C1.14335938 36.54226562 2.41953125 36.611875 3.734375 36.68359375 C6.9921875 37.09765625 6.9921875 37.09765625 8.9921875 39.09765625 C8.9921875 36.78765625 8.9921875 34.47765625 8.9921875 32.09765625 C9.3221875 32.09765625 9.6521875 32.09765625 9.9921875 32.09765625 C9.9921875 35.06765625 9.9921875 38.03765625 9.9921875 41.09765625 C3.3921875 41.09765625 -3.2078125 41.09765625 -10.0078125 41.09765625 C-10.0284375 38.18953125 -10.0490625 35.28140625 -10.0703125 32.28515625 C-10.0794165 31.3727417 -10.08852051 30.46032715 -10.09790039 29.52026367 C-10.10039795 28.79685791 -10.10289551 28.07345215 -10.10546875 27.328125 C-10.11070557 26.58973389 -10.11594238 25.85134277 -10.12133789 25.09057617 C-10.0078125 23.09765625 -10.0078125 23.09765625 -9.0078125 20.09765625 C-8.3478125 19.76765625 -7.6878125 19.43765625 -7.0078125 19.09765625 C-7.0078125 13.15765625 -7.0078125 7.21765625 -7.0078125 1.09765625 C-4.50284246 -0.15482877 -2.79927976 -0.01608781 0 0 Z M-5.0078125 2.09765625 C-4.6778125 3.08765625 -4.3478125 4.07765625 -4.0078125 5.09765625 C-3.6778125 4.10765625 -3.3478125 3.11765625 -3.0078125 2.09765625 C-3.6678125 2.09765625 -4.3278125 2.09765625 -5.0078125 2.09765625 Z " fill="#EDEDED" transform="translate(39.0078125,46.90234375)"/>
<path d="M0 0 C0.26713365 5.03438331 0.50009902 10.06877534 0.7019043 15.10620117 C0.77526942 16.81853983 0.85786122 18.53050959 0.94995117 20.24194336 C1.08094411 22.70647163 1.1783802 25.17043456 1.26953125 27.63671875 C1.31721146 28.39836838 1.36489166 29.16001801 1.41401672 29.94474792 C1.52340388 33.80775349 1.24660492 35.68076005 -1.1418457 38.77270508 C-2.55663208 39.87521606 -2.55663208 39.87521606 -4 41 C-4.9276416 41.75506836 -5.8552832 42.51013672 -6.81103516 43.28808594 C-10.6544122 45.35130442 -13.77619817 45.51364989 -18.0234375 45.390625 C-18.76961334 45.38496521 -19.51578918 45.37930542 -20.28457642 45.37347412 C-22.64872637 45.35122898 -25.01131459 45.30105984 -27.375 45.25 C-28.98565507 45.22991944 -30.59633409 45.2116714 -32.20703125 45.1953125 C-36.13861507 45.15140381 -40.06904352 45.08246318 -44 45 C-44 44.67 -44 44.34 -44 44 C-42.6087793 44.00954712 -42.6087793 44.00954712 -41.18945312 44.01928711 C-37.71433183 44.02645097 -34.24226989 44.00218073 -30.76757812 43.95727539 C-29.27023909 43.9442172 -27.77273855 43.94332639 -26.27539062 43.95532227 C-15.92792949 44.22017008 -15.92792949 44.22017008 -7.03125 39.50390625 C-5.306331 37.68560651 -5.306331 37.68560651 -4 36 C-3.67 35.67 -3.34 35.34 -3 35 C-2.84003834 32.40846893 -2.74061303 29.8404798 -2.68359375 27.24609375 C-2.66281265 26.47064713 -2.64203156 25.6952005 -2.62062073 24.89625549 C-2.55504198 22.41009692 -2.49620201 19.92382955 -2.4375 17.4375 C-2.39432267 15.75584796 -2.35070864 14.07420706 -2.30664062 12.39257812 C-2.19935221 8.26183129 -2.09810868 4.13097464 -2 0 C-3.35105145 1.12427635 -3.35105145 1.12427635 -3.11352539 4.05102539 C-3.11336634 5.39991271 -3.10767612 6.74880614 -3.09765625 8.09765625 C-3.09553383 9.16094398 -3.09553383 9.16094398 -3.09336853 10.24571228 C-3.08775443 12.51801712 -3.07519963 14.79022475 -3.0625 17.0625 C-3.05748681 18.59960796 -3.05292359 20.13671745 -3.04882812 21.67382812 C-3.03778042 25.44925642 -3.02050641 29.22461171 -3 33 C-3.33 33 -3.66 33 -4 33 C-4 22.77 -4 12.54 -4 2 C-10.125625 2.185625 -10.125625 2.185625 -16.375 2.375 C-18.30545166 2.42599854 -18.30545166 2.42599854 -20.27490234 2.47802734 C-21.28504395 2.5136377 -22.29518555 2.54924805 -23.3359375 2.5859375 C-24.37282715 2.6173584 -25.4097168 2.6487793 -26.47802734 2.68115234 C-29.16809835 2.75954472 -29.16809835 2.75954472 -31 5 C-30.67 3.35 -30.34 1.7 -30 0 C-25.75151999 -0.39377463 -21.50119131 -0.7617653 -17.25 -1.125 C-16.0434375 -1.23714844 -14.836875 -1.34929688 -13.59375 -1.46484375 C-12.43359375 -1.56152344 -11.2734375 -1.65820312 -10.078125 -1.7578125 C-9.00981445 -1.8520752 -7.94150391 -1.94633789 -6.84082031 -2.04345703 C-3.9228405 -1.99881966 -2.44395116 -1.53133649 0 0 Z " fill="#E3E3E3" transform="translate(62,45)"/>
<path d="M0 0 C7.23474662 -0.47097808 12.16903948 -0.54814921 18 4 C22.64007248 8.12048103 23.35375728 12.15437751 23.8125 18.25 C23.94171296 21.50476969 24 24.74305285 24 28 C22.35 28.33 20.7 28.66 19 29 C19.268125 28.175 19.53625 27.35 19.8125 26.5 C20.12461812 20.6737951 16.69214857 16.89725749 12.9375 12.6875 C11.04251567 10.93063617 11.04251567 10.93063617 8.75 9.6875 C7 8 7 8 6.75 4.3125 C6.8325 3.219375 6.915 2.12625 7 1 C4.69 1 2.38 1 0 1 C0 0.67 0 0.34 0 0 Z " fill="#FCFCFC" transform="translate(55,22)"/>
<path d="M0 0 C1.98 0.99 1.98 0.99 4 2 C4.33 2.99 4.66 3.98 5 5 C8.7763932 5.2981424 8.7763932 5.2981424 11 4 C11 4.99 11 5.98 11 7 C12.03125 6.360625 13.0625 5.72125 14.125 5.0625 C17.38609658 3.18288629 20.22046944 2.36873469 24 2 C22.52874208 6.41377376 19.55233719 7.50366753 15.64453125 9.7734375 C12.28306402 11.33252275 9.65675904 11.37313868 6 11 C5.01 11.33 4.02 11.66 3 12 C2.01 11.67 1.02 11.34 0 11 C0 7.37 0 3.74 0 0 Z " fill="#F8F8F8" transform="translate(66,47)"/>
<path d="M0 0 C1 3 1 3 1.5 6.0625 C1.84043772 8.92319905 1.84043772 8.92319905 3 11 C2.34 11 1.68 11 1 11 C0.67 11.99 0.34 12.98 0 14 C-0.99 14 -1.98 14 -3 14 C-3.33 18.29 -3.66 22.58 -4 27 C-2.68 27.33 -1.36 27.66 0 28 C0.33 34.93 0.66 41.86 1 49 C-0.33333333 49 -1.66666667 49 -3 49 C-3.04898437 47.75863281 -3.09796875 46.51726562 -3.1484375 45.23828125 C-3.22349799 43.59633306 -3.29904439 41.95440703 -3.375 40.3125 C-3.4059375 39.49587891 -3.436875 38.67925781 -3.46875 37.83789062 C-3.68444948 33.39807632 -4.28196996 30.12603199 -6 26 C-6.23046875 22.73828125 -6.23046875 22.73828125 -6.1875 19.3125 C-6.18105469 18.17425781 -6.17460937 17.03601563 -6.16796875 15.86328125 C-6 13 -6 13 -5 11 C-4.34 11 -3.68 11 -3 11 C-2.67 9.68 -2.34 8.36 -2 7 C-1.67 7.33 -1.34 7.66 -1 8 C-1.020625 7.05125 -1.04125 6.1025 -1.0625 5.125 C-1 2 -1 2 0 0 Z " fill="#E5E5E5" transform="translate(15,39)"/>
<path d="M0 0 C0.33 0 0.66 0 1 0 C1.020625 1.051875 1.04125 2.10375 1.0625 3.1875 C2.20660896 7.84020978 3.31726575 8.18195416 7.1484375 10.546875 C11.28630293 13.79431369 13.37178225 19.11534676 15 24 C15 25.66666667 15 27.33333333 15 29 C14.01 29.66 13.02 30.32 12 31 C12 30.34 12 29.68 12 29 C11.34 29 10.68 29 10 29 C8.29319053 27.37446717 6.62339805 25.70884005 5 24 C5 27.63 5 31.26 5 35 C4.34 35 3.68 35 3 35 C2.67 31.04 2.34 27.08 2 23 C5.76624671 21.74458443 7.37188934 22.62938042 11 24 C10.505 23.2575 10.01 22.515 9.5 21.75 C8 19 8 19 8 15 C7.401875 14.731875 6.80375 14.46375 6.1875 14.1875 C3.26040485 12.59850549 1.4905219 10.98104381 0 8 C-0.13415472 5.3276379 -0.04318541 2.67749512 0 0 Z M9 17 C10 19 10 19 10 19 Z M12 22 C13 25 13 25 13 25 Z " fill="#E7E7E7" transform="translate(61,23)"/>
<path d="M0 0 C0.99 0 1.98 0 3 0 C4.3515625 1.390625 4.3515625 1.390625 5.625 3.25 C6.26308594 4.15492187 6.26308594 4.15492187 6.9140625 5.078125 C9.16730996 9.0658867 9.11166292 12.72701159 9.0625 17.25 C9.05347656 18.32765625 9.04445312 19.4053125 9.03515625 20.515625 C9.02355469 21.33546875 9.01195312 22.1553125 9 23 C8.01 23.495 8.01 23.495 7 24 C6.98582031 23.07058594 6.97164062 22.14117187 6.95703125 21.18359375 C6.58754153 11.02975707 6.58754153 11.02975707 1 3 C-4.1602267 -0.80873875 -9.82879234 -0.68159607 -16 0 C-20.32481674 1.60178398 -23.50362611 4.01779874 -27 7 C-26.19259067 2.33496829 -25.74651205 0.63532941 -22.0625 -2.5 C-14.81735136 -6.02425811 -6.80629898 -3.2613516 0 0 Z " fill="#E9E9E9" transform="translate(71,23)"/>
<path d="M0 0 C0.66 0.33 1.32 0.66 2 1 C1.67 1.66 1.34 2.32 1 3 C2.0725 2.79375 3.145 2.5875 4.25 2.375 C7.87619096 2.0123809 9.08291076 2.01637931 12 4 C11.01 4.495 11.01 4.495 10 5 C10 5.66 10 6.32 10 7 C10.66 7.33 11.32 7.66 12 8 C11.34 8.66 10.68 9.32 10 10 C9.67 9.34 9.34 8.68 9 8 C7.02 8 5.04 8 3 8 C2.34 9.65 1.68 11.3 1 13 C0.67 12.01 0.34 11.02 0 10 C-0.33 9.67 -0.66 9.34 -1 9 C-1 11.64 -1 14.28 -1 17 C-4 17 -4 17 -6 16 C-6.97118637 12.11525451 -7.36603478 9.84188 -5.75 6.125 C-4 4 -4 4 -1 3 C-0.67 2.01 -0.34 1.02 0 0 Z M-5 6 C-4 8 -4 8 -4 8 Z " fill="#F2F2F2" transform="translate(16,32)"/>
<path d="M0 0 C0.33 0 0.66 0 1 0 C1.26717944 4.89193741 1.50013004 9.78388283 1.7019043 14.67895508 C1.77525939 16.34280395 1.85784867 18.00627299 1.94995117 19.66918945 C2.08097905 22.06420715 2.17839303 24.45864184 2.26953125 26.85546875 C2.31721146 27.5952446 2.36489166 28.33502045 2.41401672 29.09721375 C2.52514648 32.91268704 2.22366902 34.71187922 -0.1418457 37.7590332 C-1.08503662 38.49855225 -2.02822754 39.23807129 -3 40 C-3.9276416 40.75506836 -4.8552832 41.51013672 -5.81103516 42.28808594 C-9.6544122 44.35130442 -12.77619817 44.51364989 -17.0234375 44.390625 C-17.76961334 44.38496521 -18.51578918 44.37930542 -19.28457642 44.37347412 C-21.64872637 44.35122898 -24.01131459 44.30105984 -26.375 44.25 C-27.98565507 44.22991944 -29.59633409 44.2116714 -31.20703125 44.1953125 C-35.13861507 44.15140381 -39.06904352 44.08246318 -43 44 C-43 43.67 -43 43.34 -43 43 C-41.6087793 43.00954712 -41.6087793 43.00954712 -40.18945312 43.01928711 C-36.71433183 43.02645097 -33.24226989 43.00218073 -29.76757812 42.95727539 C-28.27023909 42.9442172 -26.77273855 42.94332639 -25.27539062 42.95532227 C-14.92792949 43.22017008 -14.92792949 43.22017008 -6.03125 38.50390625 C-4.306331 36.68560651 -4.306331 36.68560651 -3 35 C-2.67 34.67 -2.34 34.34 -2 34 C-0.83252995 26.87410872 -0.67903958 19.70659073 -0.4375 12.5 C-0.37272461 10.69402344 -0.37272461 10.69402344 -0.30664062 8.8515625 C-0.20126832 5.90113807 -0.09914097 2.95063929 0 0 Z " fill="#DBDBDB" transform="translate(61,46)"/>
<path d="M0 0 C0.33 0 0.66 0 1 0 C1.33 10.56 1.66 21.12 2 32 C-1.63 32 -5.26 32 -9 32 C-9 34.31 -9 36.62 -9 39 C-9.33 39 -9.66 39 -10 39 C-10.25 31.375 -10.25 31.375 -8 28 C-6.02 28 -4.04 28 -2 28 C-2 23.38 -2 18.76 -2 14 C-1.67 14 -1.34 14 -1 14 C-0.67 9.38 -0.34 4.76 0 0 Z M-8 29 C-8 29.33 -8 29.66 -8 30 C-6.02 30 -4.04 30 -2 30 C-2 29.67 -2 29.34 -2 29 C-3.98 29 -5.96 29 -8 29 Z " fill="#F5F5F5" transform="translate(57,47)"/>
<path d="M0 0 C4.95 0 9.9 0 15 0 C15.33 1.65 15.66 3.3 16 5 C10.72 4.67 5.44 4.34 0 4 C0 2.68 0 1.36 0 0 Z " fill="#F2F2F2" transform="translate(37,67)"/>
<path d="M0 0 C4.95 0 9.9 0 15 0 C15.33 1.32 15.66 2.64 16 4 C13.54159395 4.02691685 11.08348118 4.04679802 8.625 4.0625 C7.92632812 4.07087891 7.22765625 4.07925781 6.5078125 4.08789062 C1.2265625 4.11328125 1.2265625 4.11328125 -1 3 C-0.67 2.01 -0.34 1.02 0 0 Z " fill="#EEEEEE" transform="translate(37,51)"/>
<path d="M0 0 C0.99 0 1.98 0 3 0 C2.67 1.98 2.34 3.96 2 6 C5.07454047 5.92909865 8.01122299 5.7524935 11 5 C13.1386077 2.61012067 13.1386077 2.61012067 14 0 C14.33 0.66 14.66 1.32 15 2 C14.34 3.98 13.68 5.96 13 8 C8.71 8 4.42 8 0 8 C0 5.36 0 2.72 0 0 Z " fill="#E6E6E6" transform="translate(40,32)"/>
<path d="M0 0 C0.33 0 0.66 0 1 0 C1.33 1.65 1.66 3.3 2 5 C8.93 5.495 8.93 5.495 16 6 C16.33 6.99 16.66 7.98 17 9 C14.35409986 9.02684679 11.70846904 9.04676357 9.0625 9.0625 C7.93038086 9.07506836 7.93038086 9.07506836 6.77539062 9.08789062 C4.85005687 9.09652441 2.92464419 9.05224333 1 9 C0 8 0 8 -0.09765625 6.15234375 C-0.06510417 4.1015625 -0.03255208 2.05078125 0 0 Z " fill="#F7F7F7" transform="translate(30,78)"/>
<path d="M0 0 C2.31 0 4.62 0 7 0 C6.67 1.65 6.34 3.3 6 5 C3.36 5 0.72 5 -2 5 C-1.34 3.35 -0.68 1.7 0 0 Z " fill="#FDFDFD" transform="translate(37,77)"/>
<path d="M0 0 C0.33 0 0.66 0 1 0 C1.020625 1.051875 1.04125 2.10375 1.0625 3.1875 C1.57756648 6.92524509 1.57756648 6.92524509 3.625 8.33203125 C4.5840625 8.91017578 4.5840625 8.91017578 5.5625 9.5 C7.4765625 10.66796875 7.4765625 10.66796875 9 12 C9.4375 15.8125 9.4375 15.8125 9 19 C8.9175 18.38125 8.835 17.7625 8.75 17.125 C8.20721701 14.84645565 8.20721701 14.84645565 6.125 13.9375 C5.42375 13.628125 4.7225 13.31875 4 13 C2.16805801 11.37160712 1.09865093 10.19730186 0 8 C-0.13415472 5.3276379 -0.04318541 2.67749512 0 0 Z " fill="#ECECEC" transform="translate(61,23)"/>
<path d="M0 0 C1 1.33333333 2 2.66666667 3 4 C3.5775 4.639375 4.155 5.27875 4.75 5.9375 C6 8 6 8 5.6875 10.75 C5.460625 11.4925 5.23375 12.235 5 13 C5.66 12.67 6.32 12.34 7 12 C5.25 15.875 5.25 15.875 3 17 C1.89155081 13.67465243 2.15545644 11.37817425 3 8 C2.34 8 1.68 8 1 8 C0.40267181 5.23735711 0 2.83967231 0 0 Z " fill="#DFDFDF" transform="translate(70,37)"/>
<path d="M0 0 C0.33 0.66 0.66 1.32 1 2 C3.51677113 3.25838557 5.41293288 3.20818973 8.2265625 3.31640625 C9.2578125 3.35830078 10.2890625 3.40019531 11.3515625 3.44335938 C12.43179688 3.48267578 13.51203125 3.52199219 14.625 3.5625 C16.25695313 3.62727539 16.25695313 3.62727539 17.921875 3.69335938 C20.6144517 3.7996453 23.30712253 3.90168057 26 4 C26 4.33 26 4.66 26 5 C17.42 5.33 8.84 5.66 0 6 C-1 2 -1 2 0 0 Z " fill="#FDFDFD" transform="translate(33,37)"/>
<path d="M0 0 C0.33 0.66 0.66 1.32 1 2 C0.34 2 -0.32 2 -1 2 C-1 2.66 -1 3.32 -1 4 C-0.34 4.33 0.32 4.66 1 5 C0.34 5.66 -0.32 6.32 -1 7 C-1.33 6.34 -1.66 5.68 -2 5 C-5.02934491 4.34227572 -5.02934491 4.34227572 -8 4 C-7.34 3.34 -6.68 2.68 -6 2 C-6.99 1.34 -7.98 0.68 -9 0 C-5.88173308 -1.55913346 -3.32926126 -0.66585225 0 0 Z " fill="#FAFAFA" transform="translate(27,35)"/>
<path d="M0 0 C0.66 0.66 1.32 1.32 2 2 C1.9765625 4.6015625 1.9765625 4.6015625 1.625 7.625 C1.51414063 8.62789062 1.40328125 9.63078125 1.2890625 10.6640625 C1.19367188 11.43492188 1.09828125 12.20578125 1 13 C0.67 12.01 0.34 11.02 0 10 C-0.66 10 -1.32 10 -2 10 C-1.34 6.7 -0.68 3.4 0 0 Z " fill="#FEFEFE" transform="translate(2,86)"/>
<path d="M0 0 C4.29 0 8.58 0 13 0 C9.68629 2.20914 8.6553979 2.22481553 4.8125 2.125 C3.91144531 2.10695313 3.01039062 2.08890625 2.08203125 2.0703125 C1.39496094 2.04710938 0.70789062 2.02390625 0 2 C0 1.34 0 0.68 0 0 Z " fill="#FEFEFE" transform="translate(37,64)"/>
<path d="M0 0 C0.33 0 0.66 0 1 0 C1 7.26 1 14.52 1 22 C0.67 22 0.34 22 0 22 C0 14.74 0 7.48 0 0 Z " fill="#FEFEFE" transform="translate(63,58)"/>
<path d="M0 0 C0 0.66 0 1.32 0 2 C-4.29 2 -8.58 2 -13 2 C-13 1.67 -13 1.34 -13 1 C-8.60563789 0.14256349 -4.47427924 -0.08948558 0 0 Z " fill="#FEFEFE" transform="translate(50,56)"/>
<path d="M0 0 C0.33 0 0.66 0 1 0 C1.14285714 7.42857143 1.14285714 7.42857143 0 11 C-0.66 11 -1.32 11 -2 11 C-1.85892253 9.54119891 -1.71197585 8.08296449 -1.5625 6.625 C-1.48128906 5.81289063 -1.40007812 5.00078125 -1.31640625 4.1640625 C-1 2 -1 2 0 0 Z " fill="#FEFEFE" transform="translate(2,47)"/>
<path d="M0 0 C-0.33 0.99 -0.66 1.98 -1 3 C-3.5625 4.1875 -3.5625 4.1875 -6 5 C-6.33 4.01 -6.66 3.02 -7 2 C-2.25 0 -2.25 0 0 0 Z " fill="#FDFDFD" transform="translate(90,49)"/>
<path d="M0 0 C1.32 0 2.64 0 4 0 C4 1.65 4 3.3 4 5 C2.68 4.67 1.36 4.34 0 4 C0 2.68 0 1.36 0 0 Z " fill="#FEFEFE" transform="translate(70,88)"/>
<path d="M0 0 C0.33 0 0.66 0 1 0 C1.22162329 1.62324086 1.42689803 3.248721 1.625 4.875 C1.74101563 5.77992187 1.85703125 6.68484375 1.9765625 7.6171875 C1.98429687 8.40351562 1.99203125 9.18984375 2 10 C1.34 10.66 0.68 11.32 0 12 C0 8.04 0 4.08 0 0 Z " fill="#FDFDFD" transform="translate(81,34)"/>
<path d="M0 0 C0.66 0 1.32 0 2 0 C2 1.32 2 2.64 2 4 C0.68 4 -0.64 4 -2 4 C-1.34 2.68 -0.68 1.36 0 0 Z " fill="#FEFEFE" transform="translate(83,80)"/>
<path d="M0 0 C3.96 0 7.92 0 12 0 C12 0.33 12 0.66 12 1 C8.04 1 4.08 1 0 1 C0 0.67 0 0.34 0 0 Z " fill="#FEFEFE" transform="translate(38,72)"/>
<path d="M0 0 C2.64 0 5.28 0 8 0 C8 0.33 8 0.66 8 1 C5.36 1 2.72 1 0 1 C0 0.67 0 0.34 0 0 Z " fill="#FEFEFE" transform="translate(18,31)"/>
<path d="M0 0 C0.33 0.66 0.66 1.32 1 2 C-0.32 2.33 -1.64 2.66 -3 3 C-3 2.34 -3 1.68 -3 1 C-2.01 0.67 -1.02 0.34 0 0 Z " fill="#FEFEFE" transform="translate(13,94)"/>
<path d="M0 0 C0.33 0 0.66 0 1 0 C1 2.31 1 4.62 1 7 C0.67 7 0.34 7 0 7 C0 4.69 0 2.38 0 0 Z " fill="#FEFEFE" transform="translate(7,54)"/>
<path d="M0 0 C0.33 0 0.66 0 1 0 C1 2.31 1 4.62 1 7 C0.67 7 0.34 7 0 7 C0 4.69 0 2.38 0 0 Z " fill="#FEFEFE" transform="translate(2,29)"/>
<path d="M0 0 C2.31 0 4.62 0 7 0 C7 0.33 7 0.66 7 1 C4.69 1 2.38 1 0 1 C0 0.67 0 0.34 0 0 Z " fill="#FEFEFE" transform="translate(57,18)"/>
<path d="M0 0 C1.485 0.99 1.485 0.99 3 2 C2.01 2 1.02 2 0 2 C0 1.34 0 0.68 0 0 Z " fill="#FEFEFE" transform="translate(66,43)"/>
<path d="M0 0 C0.66 0.66 1.32 1.32 2 2 C1.01 2.495 1.01 2.495 0 3 C0 2.01 0 1.02 0 0 Z " fill="#FEFEFE" transform="translate(58,31)"/>
<path d="" fill="#FEFEFE" transform="translate(0,0)"/>
<path d="M0 0 C0.33 0.66 0.66 1.32 1 2 C0.34 1.67 -0.32 1.34 -1 1 C-0.67 0.67 -0.34 0.34 0 0 Z " fill="#FEFEFE" transform="translate(89,88)"/>
<path d="M0 0 C0.99 0.495 0.99 0.495 2 1 C1.01 1.495 1.01 1.495 0 2 C0 1.34 0 0.68 0 0 Z " fill="#FEFEFE" transform="translate(78,87)"/>
<path d="M0 0 C3 1 3 1 3 1 Z " fill="#FEFEFE" transform="translate(65,59)"/>
<path d="M0 0 C0.99 0.495 0.99 0.495 2 1 C1.01 1.495 1.01 1.495 0 2 C0 1.34 0 0.68 0 0 Z " fill="#FEFEFE" transform="translate(13,34)"/>
<path d="M0 0 C3 1 3 1 3 1 Z " fill="#FEFEFE" transform="translate(67,20)"/>
<path d="M0 0 C3 1 3 1 3 1 Z " fill="#FEFEFE" transform="translate(64,19)"/>
<path d="" fill="#FEFEFE" transform="translate(0,0)"/>
<path d="" fill="#FEFEFE" transform="translate(0,0)"/>
<path d="" fill="#FEFEFE" transform="translate(0,0)"/>
<path d="M0 0 C2 1 2 1 2 1 Z " fill="#FEFEFE" transform="translate(26,32)"/>
<path d="" fill="#FEFEFE" transform="translate(0,0)"/>
<path d="" fill="#FEFEFE" transform="translate(0,0)"/>
<path d="" fill="#FEFEFE" transform="translate(0,0)"/>
<path d="" fill="#FEFEFE" transform="translate(0,0)"/>
<path d="" fill="#FEFEFE" transform="translate(0,0)"/>
<path d="" fill="#FEFEFE" transform="translate(0,0)"/>
<path d="" fill="#FEFEFE" transform="translate(0,0)"/>
<path d="" fill="#FEFEFE" transform="translate(0,0)"/>
<path d="" fill="#FFFFFF" transform="translate(0,0)"/>
<path d="" fill="#FEFEFE" transform="translate(0,0)"/>
<path d="" fill="#FEFEFE" transform="translate(0,0)"/>
<path d="" fill="#FEFEFE" transform="translate(0,0)"/>
<path d="" fill="#FEFEFE" transform="translate(0,0)"/>
<path d="" fill="#FEFEFE" transform="translate(0,0)"/>
<path d="" fill="#FEFEFE" transform="translate(0,0)"/>
<path d="" fill="#FEFEFE" transform="translate(0,0)"/>
<path d="" fill="#FFFFFF" transform="translate(0,0)"/>
<path d="" fill="#FEFEFE" transform="translate(0,0)"/>
<path d="" fill="#FFFFFF" transform="translate(0,0)"/>
<path d="" fill="#FEFEFE" transform="translate(0,0)"/>
<path d="" fill="#FFFFFF" transform="translate(0,0)"/>
<path d="" fill="#FEFEFE" transform="translate(0,0)"/>
</svg>
