<?xml version="1.0" standalone="no"?>
<!DOCTYPE svg PUBLIC "-//W3C//DTD SVG 20010904//EN"
 "http://www.w3.org/TR/2001/REC-SVG-20010904/DTD/svg10.dtd">
<svg version="1.0" xmlns="http://www.w3.org/2000/svg"
 width="588.000000pt" height="577.000000pt" viewBox="0 0 588.000000 577.000000"
 preserveAspectRatio="xMidYMid meet">
<metadata>
Created by potrace 1.16, written by Peter Selinger 2001-2019
</metadata>
<g transform="translate(0.000000,577.000000) scale(0.100000,-0.100000)"
fill="#000000" stroke="none">
<path d="M3087 4552 c-10 -10 -17 -31 -17 -46 0 -15 -16 -68 -35 -117 -19 -50
-35 -101 -35 -114 0 -13 13 -56 29 -97 46 -114 46 -114 6 -218 -29 -76 -36
-104 -31 -137 l6 -43 -113 0 c-184 0 -287 -30 -387 -112 l-55 -45 -115 -7
c-497 -29 -745 -163 -836 -450 -33 -105 -52 -250 -60 -461 -7 -190 6 -297 51
-428 90 -257 318 -442 638 -517 277 -64 644 -92 1222 -93 409 0 434 1 508 21
355 97 524 368 546 872 22 506 -55 734 -302 888 -141 88 -279 125 -524 138
-68 4 -123 10 -123 14 0 31 -137 119 -207 135 -18 3 -33 12 -33 18 0 7 15 41
33 76 l32 63 105 47 105 47 53 110 54 110 91 46 c75 37 99 44 131 40 30 -3 42
0 53 14 18 25 16 58 -5 77 -25 22 -51 21 -77 -3 -11 -10 -70 -44 -131 -73
-123 -61 -107 -43 -187 -220 -21 -47 -26 -50 -135 -102 l-112 -54 -41 -86
c-23 -47 -45 -85 -50 -85 -28 0 -56 22 -67 54 -13 35 -11 43 27 142 l41 104
-40 106 -40 106 32 90 c25 72 36 92 59 104 22 11 29 22 29 44 0 54 -58 80 -93
42z m63 -1193 c347 -32 552 -126 638 -295 46 -89 56 -157 56 -369 1 -214 -6
-260 -58 -376 -70 -159 -239 -283 -469 -344 -185 -49 -274 -59 -552 -59 -364
-1 -541 30 -730 127 -103 53 -219 165 -259 252 -55 118 -68 192 -69 395 0 255
23 346 115 446 118 128 304 189 698 227 86 9 526 6 630 -4z m1015 -233 c48
-37 69 -80 68 -143 -2 -196 -280 -226 -334 -36 -41 149 142 273 266 179z"/>
<path d="M2663 2796 c-57 -14 -103 -40 -103 -59 0 -6 32 -42 72 -78 65 -60 71
-68 58 -84 -14 -17 -45 -17 -97 0 -16 5 -25 3 -29 -9 -11 -29 15 -46 73 -46
44 0 58 5 78 25 15 14 25 36 25 54 0 29 -4 33 -94 109 -34 29 -26 39 38 51 52
9 72 23 62 40 -9 13 -16 13 -83 -3z"/>
<path d="M3072 2793 c-15 -30 -75 -264 -69 -270 13 -12 34 7 40 36 5 22 14 32
32 37 32 8 51 -7 59 -47 4 -22 11 -30 23 -27 11 2 17 11 15 23 -2 11 -4 34 -5
50 -2 17 -5 35 -9 40 -3 6 -14 39 -23 75 -26 99 -43 122 -63 83z"/>
<path d="M3303 2796 c-63 -16 -105 -42 -101 -63 2 -9 31 -39 65 -67 69 -57 79
-72 61 -93 -12 -15 -46 -14 -95 2 -16 5 -25 3 -29 -9 -11 -29 15 -46 73 -46
44 0 58 5 78 25 42 42 34 72 -37 137 l-63 56 28 11 c16 6 38 11 51 11 29 0 61
24 52 38 -9 14 -16 14 -83 -2z"/>
<path d="M3467 2800 c-63 -19 -72 -57 -11 -45 l34 6 -7 -88 c-11 -140 -11
-148 12 -148 18 0 21 9 27 100 11 139 12 143 51 147 20 2 32 8 32 18 0 18 -92
24 -138 10z"/>
<path d="M2014 2703 l6 -88 -20 40 c-11 22 -20 45 -20 51 0 6 -9 19 -20 29
-19 17 -20 17 -30 -9 -5 -15 -10 -63 -10 -107 0 -71 2 -80 18 -77 12 2 18 16
22 48 l5 45 22 -37 c41 -70 74 -40 72 64 -2 87 -11 122 -32 126 -17 3 -18 -3
-13 -85z"/>
<path d="M2118 2775 c-28 -16 -28 -17 -28 -120 0 -140 12 -152 118 -109 17 7
32 20 32 28 0 20 1 20 -45 0 -43 -18 -65 -13 -65 15 0 34 11 51 34 51 28 0 50
15 42 29 -4 6 -20 11 -35 11 -21 0 -30 6 -34 21 -10 37 3 52 39 46 19 -3 36
-1 40 5 17 28 -58 45 -98 23z"/>
<path d="M2500 2765 c-8 -9 -11 -30 -7 -55 5 -42 0 -80 -12 -80 -4 0 -15 16
-24 35 -25 52 -51 47 -83 -17 -22 -44 -28 -49 -36 -34 -6 10 -10 42 -9 72 0
41 -4 56 -15 61 -8 3 -20 1 -26 -5 -16 -16 -11 -120 9 -160 29 -60 54 -50 108
43 9 15 13 12 35 -21 51 -79 103 -26 98 100 -3 71 -14 89 -38 61z"/>
<path d="M2842 2727 c-47 -27 -75 -105 -52 -146 27 -52 131 -80 175 -47 24 17
13 52 -13 41 -9 -5 -31 -10 -49 -13 -56 -7 -92 54 -63 109 8 13 21 19 48 19
20 0 44 5 52 10 38 24 -57 50 -98 27z"/>
<path d="M4024 3119 c-112 -32 -131 -188 -31 -249 41 -25 103 -25 144 0 99 60
76 219 -36 250 -41 11 -36 11 -77 -1z"/>
</g>
</svg>
