<?xml version="1.0" encoding="UTF-8"?>
<svg version="1.1" xmlns="http://www.w3.org/2000/svg" width="588" height="577">
<path d="M0 0 C1.9375 1.5625 1.9375 1.5625 3 4 C2.9375 7.625 2.9375 7.625 2 11 C1.39027344 11.24234375 0.78054688 11.4846875 0.15234375 11.734375 C-3.25604798 13.73858356 -4.06757557 17.07627656 -5.375 20.625 C-5.80232422 21.65560547 -5.80232422 21.65560547 -6.23828125 22.70703125 C-9.58175568 31.57306047 -5.48635568 38.56695834 -1.92578125 46.8515625 C0.08157546 53.67826929 -3.36151016 59.79254251 -6.09179688 65.99023438 C-8.16934837 71.1128968 -8.02352593 73.84370636 -6 79 C-4.35 79.33 -2.7 79.66 -1 80 C-0.79697266 79.18208984 -0.79697266 79.18208984 -0.58984375 78.34765625 C1.26911579 71.8357321 4.1825686 66.79731687 9 62 C11.43758659 60.70951298 13.43352703 59.86510325 16 59 C23.11074562 56.35503263 28.03005822 54.12668913 31.5 47.125 C32.36349749 45.09590678 33.19917721 43.05463624 34 41 C34.66674692 39.49066081 35.35146612 37.9889886 36.0625 36.5 C36.45115234 35.61828125 36.45115234 35.61828125 36.84765625 34.71875 C40.51140561 29.25417468 46.85152349 27.03119058 52.625 24.4375 C54.32830437 23.67152453 56.02895214 22.89960725 57.7265625 22.12109375 C58.47502441 21.7852124 59.22348633 21.44933105 59.99462891 21.10327148 C62.06332841 20.08678491 62.06332841 20.08678491 63.61083984 18.38696289 C65 17 65 17 67.5 16.6875 C70 17 70 17 73 19 C73.875 22.4375 73.875 22.4375 74 26 C72.53728198 28.43786336 71.46690808 28.87030331 68.75 29.625 C66.75867372 29.89654449 64.7630882 30.13743464 62.765625 30.359375 C56.00348167 31.50978113 48.02309411 33.95023851 43.72900391 39.70263672 C41.29806654 43.93297121 39.68006595 48.4327826 38 53 C35.96643912 58.01212945 34.37826555 59.85300511 29.4375 62.0625 C27.84035156 62.81466797 27.84035156 62.81466797 26.2109375 63.58203125 C24.20929803 64.46596693 22.19510874 65.3226217 20.1640625 66.13671875 C13.91537393 68.8107071 11.45982411 71.54240455 8.7421875 77.79296875 C7.89375232 79.92786669 7.89375232 79.92786669 8 82 C8.82242188 82.25652344 9.64484375 82.51304687 10.4921875 82.77734375 C18.85142467 85.6441953 25.14747633 89.27554279 31 96 C31 96.66 31 97.32 31 98 C32.49273437 97.94779297 32.49273437 97.94779297 34.015625 97.89453125 C60.77789902 97.26158481 88.75111117 102.62355196 108.75 121.62890625 C117.61776387 130.97392825 122.52567982 142.43171882 125 155 C125.25148804 156.26602051 125.25148804 156.26602051 125.50805664 157.55761719 C127.10980366 166.64135524 127.30679774 175.51784789 127.26074219 184.70947266 C127.25007465 187.23234415 127.26066855 189.75449449 127.2734375 192.27734375 C127.28685528 206.5551667 126.2127108 220.63682101 122.875 234.5625 C122.66544678 235.43745117 122.45589355 236.31240234 122.23999023 237.21386719 C119.30345522 248.63545928 113.8108023 261.04494003 106 270 C105.34 270 104.68 270 104 270 C104 270.66 104 271.32 104 272 C102.625 273.625 102.625 273.625 101 275 C100.34 275 99.68 275 99 275 C99 275.66 99 276.32 99 277 C95.51053356 279.60427091 91.7401343 281.7758668 88 284 C87.32195312 284.40992188 86.64390625 284.81984375 85.9453125 285.2421875 C73.95026769 291.88322089 59.11702674 292.07130203 45.75 292.5625 C44.72648438 292.60568359 43.70296875 292.64886719 42.6484375 292.69335938 C25.29704604 293.35506498 7.9166432 293.03816497 -9.4375 292.625 C-10.33710449 292.60388153 -11.23670898 292.58276306 -12.16357422 292.56100464 C-40.24076556 291.88078976 -68.40729129 290.54144554 -96 285 C-96.71043457 284.85836426 -97.42086914 284.71672852 -98.15283203 284.57080078 C-119.57444701 280.19558942 -140.77173635 271.43197865 -155 254 C-155 253.34 -155 252.68 -155 252 C-155.66 252 -156.32 252 -157 252 C-161.66899076 246.32019681 -164.73361721 239.76261872 -167.3125 232.9375 C-167.55452148 232.30199219 -167.79654297 231.66648437 -168.04589844 231.01171875 C-171.31103438 221.94854875 -172.36322614 212.89827778 -172.6875 203.3125 C-172.72584961 202.22743164 -172.76419922 201.14236328 -172.80371094 200.02441406 C-173.56807157 173.95290541 -174.02659422 142.47710994 -157 121 C-154.18165921 118.08910286 -151.30671728 115.35039579 -148 113 C-147.34 113 -146.68 113 -146 113 C-146 112.34 -146 111.68 -146 111 C-145.01 111 -144.02 111 -143 111 C-143 110.34 -143 109.68 -143 109 C-122.98860864 99.38822935 -103.3029792 95.59234926 -81.23095703 94.94677734 C-74.02987441 94.63645859 -69.95973172 94.39251808 -65 89 C-64.34 89 -63.68 89 -63 89 C-62.505 87.515 -62.505 87.515 -62 86 C-60.36328125 84.90234375 -60.36328125 84.90234375 -58.3125 83.9375 C-57.64863281 83.61652344 -56.98476563 83.29554688 -56.30078125 82.96484375 C-43.9298066 77.77701567 -31.17482599 77.71599178 -18 78 C-17.9175 76.72125 -17.835 75.4425 -17.75 74.125 C-17.15273539 68.63709041 -15.20097997 64.01657322 -13 59 C-9.37592316 50.69326717 -12.92411748 43.12545634 -16 35 C-16.33 34.67 -16.66 34.34 -17 34 C-17.46300784 28.23812463 -16.23629814 24.19323857 -14.0625 19 C-11.97097219 13.93374702 -10.71985329 9.48039252 -10 4 C-7.2007061 -0.04342453 -4.83280859 -0.82260572 0 0 Z M-132.9375 143.375 C-144.16071355 155.55629275 -145.39708288 171.76922733 -145.375 187.5625 C-145.37445618 188.22030457 -145.37391235 188.87810913 -145.37335205 189.55584717 C-145.31302584 205.46507499 -143.26753471 219.13187726 -135 233 C-134.60296875 233.680625 -134.2059375 234.36125 -133.796875 235.0625 C-132.70275623 236.89244297 -132.70275623 236.89244297 -131 239 C-130.34 239 -129.68 239 -129 239 C-128.74089844 239.60070312 -128.48179687 240.20140625 -128.21484375 240.8203125 C-121.52676533 252.82014452 -100.80662702 258.42474301 -88.33984375 262.0703125 C-54.74777846 270.04807186 -10.71692078 269.72542643 22 258 C22.66370605 257.77441406 23.32741211 257.54882812 24.01123047 257.31640625 C36.50120857 253.03309092 47.53873324 246.3280792 56 236 C56 235.34 56 234.68 56 234 C56.66 234 57.32 234 58 234 C60.35910353 229.7362719 60.35910353 229.7362719 61 225 C61.66 225 62.32 225 63 225 C63.46463869 223.68971889 63.92124581 222.37659011 64.375 221.0625 C64.63023437 220.33160156 64.88546875 219.60070312 65.1484375 218.84765625 C67.790755 210.01164955 68.3427241 201.82759787 68.31567383 192.67358398 C68.31254062 190.46611829 68.33593988 188.26003265 68.36132812 186.05273438 C68.41593402 173.72487416 68.02164698 159.56841747 61 149 C60.59136719 148.33871094 60.18273437 147.67742187 59.76171875 146.99609375 C55.94197349 141.32565501 50.98188128 137.29466783 45 134 C44.01 134 43.02 134 42 134 C42 133.34 42 132.68 42 132 C34.02397587 129.09095682 26.04014472 126.59012863 17.75 124.75 C17.06252686 124.58725586 16.37505371 124.42451172 15.66674805 124.25683594 C-0.02651951 120.94929415 -16.85992646 121.8384098 -32.80688477 121.86962891 C-36.06205894 121.87499927 -39.31709554 121.86964139 -42.57226562 121.86328125 C-90.94201561 121.79322062 -90.94201561 121.79322062 -132.9375 143.375 Z " fill="#201615" transform="translate(316,119)"/>
<path d="M0 0 C1.08921753 -0.01377686 1.08921753 -0.01377686 2.20043945 -0.02783203 C6.05903804 -0.00523806 8.57880955 0.43561465 11.9375 2.25 C14.0117625 2.53480806 16.09821439 2.73874224 18.1875 2.875 C19.26515625 2.94976562 20.3428125 3.02453125 21.453125 3.1015625 C22.68289063 3.17503906 22.68289063 3.17503906 23.9375 3.25 C24.2675 4.57 24.5975 5.89 24.9375 7.25 C24.2775 7.58 23.6175 7.91 22.9375 8.25 C22.31875 9.425625 22.31875 9.425625 21.6875 10.625 C19.52482826 13.86900761 17.43625956 14.64640187 13.9375 16.25 C11.90003657 17.92363067 11.06792717 18.88045635 10.1875 21.375 C9.56875 22.303125 9.56875 22.303125 8.9375 23.25 C7.346388 23.45753635 5.75344926 23.65476513 4.15625 23.80859375 C-4.71273357 25.57302182 -13.41870897 32.12709802 -21.09912109 36.73413086 C-22.46492937 37.55230162 -23.83527236 38.36295893 -25.21044922 39.1652832 C-26.77927895 40.08412192 -28.32940662 41.03477827 -29.875 41.9921875 C-34.57110967 43.84530921 -39.18015948 43.91672564 -44.1875 44.1875 C-65.15401593 45.63489892 -83.6842572 49.88671309 -102.0625 60.25 C-103.39054981 60.92713066 -104.72152003 61.59885107 -106.0625 62.25 C-106.0625 62.91 -106.0625 63.57 -106.0625 64.25 C-106.7225 64.25 -107.3825 64.25 -108.0625 64.25 C-108.0625 64.91 -108.0625 65.57 -108.0625 66.25 C-108.7225 66.25 -109.3825 66.25 -110.0625 66.25 C-121.81781385 89.59735946 -124.05614341 117.78400751 -116.23046875 142.984375 C-113.56938182 150.42473847 -110.24470891 156.32747553 -105.0625 162.25 C-105.0625 162.91 -105.0625 163.57 -105.0625 164.25 C-104.4025 164.25 -103.7425 164.25 -103.0625 164.25 C-103.0625 164.91 -103.0625 165.57 -103.0625 166.25 C-102.4025 166.25 -101.7425 166.25 -101.0625 166.25 C-101.0625 166.91 -101.0625 167.57 -101.0625 168.25 C-100.48886719 168.52070313 -99.91523438 168.79140625 -99.32421875 169.0703125 C-97.02559895 170.26924718 -94.99459796 171.63471801 -92.875 173.125 C-88.48451948 176.10060806 -83.97420805 178.2760275 -79.0625 180.25 C-79.0625 180.91 -79.0625 181.57 -79.0625 182.25 C-81.6024859 183.81306825 -82.96689795 184.25203409 -86 184.1875 C-89.5881411 184.26072737 -91.10268608 185.3301207 -94.0625 187.25 C-95.0525 187.25 -96.0425 187.25 -97.0625 187.25 C-97.0625 187.91 -97.0625 188.57 -97.0625 189.25 C-99.0425 190.24 -101.0225 191.23 -103.0625 192.25 C-89.48072704 203.61296846 -64.76766756 206.51399914 -47.671875 207.109375 C-45.0625 207.25 -45.0625 207.25 -43.24525452 207.7507019 C-40.61957016 208.35131878 -38.22337472 208.37719728 -35.52905273 208.37939453 C-33.85835976 208.38412277 -33.85835976 208.38412277 -32.15391541 208.38894653 C-30.94683426 208.3869223 -29.73975311 208.38489807 -28.49609375 208.3828125 C-27.23402603 208.38376923 -25.97195831 208.38472595 -24.67164612 208.38571167 C-21.98410667 208.38639334 -19.29665745 208.38504387 -16.60913086 208.38037109 C-12.59551868 208.37371561 -8.58197242 208.3802624 -4.56835938 208.38671875 C17.6873369 208.39386518 39.92946786 208.03106604 62.10400391 206.00268555 C64.23407101 205.80824891 66.36491506 205.62517179 68.49609375 205.44335938 C72.64722391 205.08246595 76.7931244 204.68140109 80.9375 204.25 C81.61411682 204.18016907 82.29073364 204.11033813 82.987854 204.03839111 C90.52445032 203.23297231 97.4645314 202.34425019 104.3125 199 C104.97894531 198.6898999 105.64539063 198.3797998 106.33203125 198.06030273 C124.96188256 189.18343279 133.83602216 175.79236881 140.84375 156.79296875 C145.28974868 143.38828273 145.31327258 129.15399253 145.25 115.1875 C145.24784485 114.33104889 145.2456897 113.47459778 145.24346924 112.5921936 C145.13104875 84.71548695 142.45612472 58.67288079 122.9375 37.25 C130.20715137 38.24532488 134.73212346 43.4921514 139.125 49.0625 C151.2079689 66.18822557 153.30032022 86.58705353 153.19824219 106.95947266 C153.18757465 109.48234415 153.19816855 112.00449449 153.2109375 114.52734375 C153.22435528 128.8051667 152.1502108 142.88682101 148.8125 156.8125 C148.60294678 157.68745117 148.39339355 158.56240234 148.17749023 159.46386719 C145.24095522 170.88545928 139.7483023 183.29494003 131.9375 192.25 C131.2775 192.25 130.6175 192.25 129.9375 192.25 C129.9375 192.91 129.9375 193.57 129.9375 194.25 C128.5625 195.875 128.5625 195.875 126.9375 197.25 C126.2775 197.25 125.6175 197.25 124.9375 197.25 C124.9375 197.91 124.9375 198.57 124.9375 199.25 C121.44803356 201.85427091 117.6776343 204.0258668 113.9375 206.25 C113.25945312 206.65992188 112.58140625 207.06984375 111.8828125 207.4921875 C99.88776769 214.13322089 85.05452674 214.32130203 71.6875 214.8125 C70.66398438 214.85568359 69.64046875 214.89886719 68.5859375 214.94335938 C51.23454604 215.60506498 33.8541432 215.28816497 16.5 214.875 C15.60039551 214.85388153 14.70079102 214.83276306 13.77392578 214.81100464 C-14.30326556 214.13078976 -42.46979129 212.79144554 -70.0625 207.25 C-71.12815186 207.03754639 -71.12815186 207.03754639 -72.21533203 206.82080078 C-93.63694701 202.44558942 -114.83423635 193.68197865 -129.0625 176.25 C-129.0625 175.59 -129.0625 174.93 -129.0625 174.25 C-129.7225 174.25 -130.3825 174.25 -131.0625 174.25 C-135.73149076 168.57019681 -138.79611721 162.01261872 -141.375 155.1875 C-141.61702148 154.55199219 -141.85904297 153.91648437 -142.10839844 153.26171875 C-145.37353438 144.19854875 -146.42572614 135.14827778 -146.75 125.5625 C-146.78834961 124.47743164 -146.82669922 123.39236328 -146.86621094 122.27441406 C-147.63057157 96.20290541 -148.08909422 64.72710994 -131.0625 43.25 C-128.24415921 40.33910286 -125.36921728 37.60039579 -122.0625 35.25 C-121.4025 35.25 -120.7425 35.25 -120.0625 35.25 C-120.0625 34.59 -120.0625 33.93 -120.0625 33.25 C-119.0725 33.25 -118.0825 33.25 -117.0625 33.25 C-117.0625 32.59 -117.0625 31.93 -117.0625 31.25 C-97.05110864 21.63822935 -77.3654792 17.84234926 -55.29345703 17.19677734 C-48.09237441 16.88645859 -44.02223172 16.64251808 -39.0625 11.25 C-38.4025 11.25 -37.7425 11.25 -37.0625 11.25 C-36.7325 10.26 -36.4025 9.27 -36.0625 8.25 C-34.42578125 7.15234375 -34.42578125 7.15234375 -32.375 6.1875 C-31.37919922 5.70603516 -31.37919922 5.70603516 -30.36328125 5.21484375 C-20.59673872 1.11919688 -10.50260935 0.07433482 0 0 Z " fill="#211516" transform="translate(290.0625,196.75)"/>
<path d="M0 0 C1.9375 1.5625 1.9375 1.5625 3 4 C2.9375 7.625 2.9375 7.625 2 11 C1.39027344 11.24234375 0.78054688 11.4846875 0.15234375 11.734375 C-3.25604798 13.73858356 -4.06757557 17.07627656 -5.375 20.625 C-5.80232422 21.65560547 -5.80232422 21.65560547 -6.23828125 22.70703125 C-9.58175568 31.57306047 -5.48635568 38.56695834 -1.92578125 46.8515625 C0.08157546 53.67826929 -3.36151016 59.79254251 -6.09179688 65.99023438 C-8.16934837 71.1128968 -8.02352593 73.84370636 -6 79 C-4.35 79.33 -2.7 79.66 -1 80 C-0.79697266 79.18208984 -0.79697266 79.18208984 -0.58984375 78.34765625 C1.26911579 71.8357321 4.1825686 66.79731687 9 62 C11.43758659 60.70951298 13.43352703 59.86510325 16 59 C23.11074562 56.35503263 28.03005822 54.12668913 31.5 47.125 C32.36349749 45.09590678 33.19917721 43.05463624 34 41 C34.66674692 39.49066081 35.35146612 37.9889886 36.0625 36.5 C36.45115234 35.61828125 36.45115234 35.61828125 36.84765625 34.71875 C40.51140561 29.25417468 46.85152349 27.03119058 52.625 24.4375 C54.32830437 23.67152453 56.02895214 22.89960725 57.7265625 22.12109375 C58.47502441 21.7852124 59.22348633 21.44933105 59.99462891 21.10327148 C62.06332841 20.08678491 62.06332841 20.08678491 63.61083984 18.38696289 C65 17 65 17 67.5 16.6875 C70 17 70 17 73 19 C73.875 22.4375 73.875 22.4375 74 26 C72.53728198 28.43786336 71.46690808 28.87030331 68.75 29.625 C66.75867372 29.89654449 64.7630882 30.13743464 62.765625 30.359375 C56.00348167 31.50978113 48.02309411 33.95023851 43.72900391 39.70263672 C41.29806654 43.93297121 39.68006595 48.4327826 38 53 C35.96643912 58.01212945 34.37826555 59.85300511 29.4375 62.0625 C27.84035156 62.81466797 27.84035156 62.81466797 26.2109375 63.58203125 C24.20929803 64.46596693 22.19510874 65.3226217 20.1640625 66.13671875 C13.91537393 68.8107071 11.45982411 71.54240455 8.7421875 77.79296875 C7.89375232 79.92786669 7.89375232 79.92786669 8 82 C8.82242188 82.25652344 9.64484375 82.51304687 10.4921875 82.77734375 C18.85142467 85.6441953 25.14747633 89.27554279 31 96 C31 96.66 31 97.32 31 98 C32.49273437 97.94779297 32.49273437 97.94779297 34.015625 97.89453125 C57.90686292 97.32948681 79.19470033 102.33347682 100 114 C99.34 114.66 98.68 115.32 98 116 C98.42410156 116.36609375 98.84820312 116.7321875 99.28515625 117.109375 C110.8608949 127.79467221 117.00899056 143.7963854 117.95703125 159.375 C117.97121094 159.91125 117.98539062 160.4475 118 161 C114.41659212 163.45719398 112.30874796 164.17379824 108 164 C107.97421875 163.34773437 107.9484375 162.69546875 107.921875 162.0234375 C107.54909077 156.27917137 106.93608396 152.4679872 103 148 C98.15999486 144.34530224 94.33901316 142.57318825 88.1875 142.65234375 C81.88482811 143.65401839 77.21154222 148.55448321 73 153 C69.48275862 156 69.48275862 156 66 156 C66.30744141 156.80050781 66.30744141 156.80050781 66.62109375 157.6171875 C66.89050781 158.36226562 67.15992188 159.10734375 67.4375 159.875 C67.70433594 160.59429687 67.97117187 161.31359375 68.24609375 162.0546875 C70.54749575 171.04565698 70.21299197 180.53499932 70.25 189.75 C70.2809375 191.65265625 70.2809375 191.65265625 70.3125 193.59375 C70.38615124 211.63830294 66.19195873 227.46125513 54 241 C53.47921875 241.62519531 52.9584375 242.25039063 52.421875 242.89453125 C43.35781743 253.03437343 26.42958233 261.0630524 13 262 C13.66 261.67 14.32 261.34 15 261 C15 260.34 15 259.68 15 259 C15.58265625 258.84144531 16.1653125 258.68289063 16.765625 258.51953125 C31.67913382 254.27527795 44.71855206 247.962691 55 236 C55.33 235.34 55.66 234.68 56 234 C56.66 234 57.32 234 58 234 C58.99 231.03 59.98 228.06 61 225 C61.66 225 62.32 225 63 225 C63.13325684 224.11989258 63.26651367 223.23978516 63.40380859 222.33300781 C63.93790917 219.34711875 64.68215658 216.5764454 65.5390625 213.671875 C67.33066885 206.59710303 67.45399505 199.68995536 67.39111328 192.44726562 C67.37511939 190.26628094 67.39099946 188.08717665 67.41015625 185.90625 C67.42839176 173.56871233 66.91040636 159.61598659 60 149 C59.66484375 148.4121875 59.3296875 147.824375 58.984375 147.21875 C55.1669326 141.08933544 48.83491667 136.27830556 42 134 C42 133.34 42 132.68 42 132 C40.515 131.8453125 40.515 131.8453125 39 131.6875 C35.50605289 131.19608874 32.47831591 130.04212472 29.18603516 128.77758789 C25.58528542 127.4967762 21.92025784 126.67328012 18.1875 125.875 C17.47658203 125.70613281 16.76566406 125.53726563 16.03320312 125.36328125 C0.20026572 121.95228371 -16.71243168 122.83812105 -32.80688477 122.86962891 C-36.06205894 122.87499927 -39.31709554 122.86964139 -42.57226562 122.86328125 C-89.78637967 122.84464157 -89.78637967 122.84464157 -131.37109375 143.03515625 C-143.10601605 155.25810935 -144.39756243 171.42626349 -144.375 187.5625 C-144.37445618 188.22030457 -144.37391235 188.87810913 -144.37335205 189.55584717 C-144.31195297 205.74801302 -142.52083422 221.88930666 -132.31640625 235.1953125 C-131 237 -131 237 -131 239 C-130.34 239 -129.68 239 -129 239 C-128.42378906 239.73476563 -127.84757812 240.46953125 -127.25390625 241.2265625 C-120.12286438 250.00132806 -108.73777495 254.24741835 -98.31030273 257.70458984 C-97.53372314 257.96449707 -96.75714355 258.2244043 -95.95703125 258.4921875 C-95.26585205 258.71245605 -94.57467285 258.93272461 -93.86254883 259.15966797 C-91.75061494 260.11251584 -90.53143635 261.28142458 -89 263 C-102.37793133 262.06665595 -116.78820531 254.49587837 -127 246 C-127 245.34 -127 244.68 -127 244 C-127.66 244 -128.32 244 -129 244 C-129 243.34 -129 242.68 -129 242 C-129.66 242 -130.32 242 -131 242 C-137.42690573 234.92047249 -141.09806546 227.01251216 -144 218 C-144.23460937 217.30390625 -144.46921875 216.6078125 -144.7109375 215.890625 C-150.38605456 196.64457583 -149.26769749 167.51745025 -139.69921875 149.55859375 C-137.40621859 145.66928669 -137.40621859 145.66928669 -136 144 C-135.34 144 -134.68 144 -134 144 C-134 143.34 -134 142.68 -134 142 C-133.34 142 -132.68 142 -132 142 C-132 141.34 -132 140.68 -132 140 C-129.875 138.4140625 -129.875 138.4140625 -127 136.625 C-126.071875 136.03976563 -125.14375 135.45453125 -124.1875 134.8515625 C-117.70722572 131.08728553 -111.50438995 128.29168288 -104.25 126.375 C-103.45416504 126.16190186 -102.65833008 125.94880371 -101.83837891 125.72924805 C-93.67509519 123.58872352 -85.75645271 122.14286936 -77.31640625 121.65234375 C-61.73826262 120.84074187 -61.73826262 120.84074187 -48 114 C-46.03184739 112.81484721 -44.0520392 111.64888884 -42.0625 110.5 C-41.06992187 109.91992188 -40.07734375 109.33984375 -39.0546875 108.7421875 C-25.21248609 100.84753043 -25.21248609 100.84753043 -19.9375 100.4375 C-18.968125 100.293125 -17.99875 100.14875 -17 100 C-15.17394457 97.67881567 -15.17394457 97.67881567 -14 95 C-12.10723517 92.65657688 -10.73215545 91.87427705 -7.9375 90.5625 C-4.88931172 88.94112325 -4.09802208 88.18426404 -3 85 C-2.34 85 -1.68 85 -1 85 C-1.33 84.01 -1.66 83.02 -2 82 C-3.24716797 81.92652344 -3.24716797 81.92652344 -4.51953125 81.8515625 C-5.60621094 81.77679688 -6.69289063 81.70203125 -7.8125 81.625 C-8.89144531 81.55539063 -9.97039062 81.48578125 -11.08203125 81.4140625 C-14 81 -14 81 -17 79 C-18.54847614 71.74587753 -15.98436582 65.4806484 -13 59 C-9.36314808 50.70498842 -12.9284747 43.11394601 -16 35 C-16.33 34.67 -16.66 34.34 -17 34 C-17.46300784 28.23812463 -16.23629814 24.19323857 -14.0625 19 C-11.97097219 13.93374702 -10.71985329 9.48039252 -10 4 C-7.2007061 -0.04342453 -4.83280859 -0.82260572 0 0 Z " fill="#201514" transform="translate(316,119)"/>
<path d="M0 0 C7.26965137 0.99532488 11.79462346 6.2421514 16.1875 11.8125 C28.2704689 28.93822557 30.36282022 49.33705353 30.26074219 69.70947266 C30.25007465 72.23234415 30.26066855 74.75449449 30.2734375 77.27734375 C30.28685528 91.5551667 29.2127108 105.63682101 25.875 119.5625 C25.66544678 120.43745117 25.45589355 121.31240234 25.23999023 122.21386719 C22.30345522 133.63545928 16.8108023 146.04494003 9 155 C8.34 155 7.68 155 7 155 C7 155.66 7 156.32 7 157 C5.625 158.625 5.625 158.625 4 160 C3.34 160 2.68 160 2 160 C2 160.66 2 161.32 2 162 C-1.48946644 164.60427091 -5.2598657 166.7758668 -9 169 C-9.67804688 169.40992188 -10.35609375 169.81984375 -11.0546875 170.2421875 C-23.04973231 176.88322089 -37.88297326 177.07130203 -51.25 177.5625 C-52.27351563 177.60568359 -53.29703125 177.64886719 -54.3515625 177.69335938 C-71.16105036 178.33439917 -88.00125957 178.05719893 -104.81445312 177.68261719 C-106.61906143 177.64390014 -108.42375835 177.60913014 -110.22851562 177.578125 C-120.64852523 177.39885602 -130.73266103 176.96910377 -141 175 C-143.10409131 174.62457739 -145.20824897 174.24952631 -147.3125 173.875 C-148.87534209 173.58517194 -150.43798396 173.29424751 -152 173 C-152 172.67 -152 172.34 -152 172 C-150.68733154 171.97494385 -149.37466309 171.9498877 -148.0222168 171.92407227 C-133.34756478 171.64154906 -118.67359336 171.33299353 -104 171 C-102.85217041 170.97453094 -102.85217041 170.97453094 -101.68115234 170.94854736 C-87.32475574 170.62691117 -73.05532067 169.77553475 -58.75 168.5625 C-57.65563126 168.47020111 -57.65563126 168.47020111 -56.53915405 168.3760376 C-51.68804633 167.96125555 -46.84264562 167.50408621 -42 167 C-41.32338318 166.93016907 -40.64676636 166.86033813 -39.949646 166.78839111 C-32.41304968 165.98297231 -25.4729686 165.09425019 -18.625 161.75 C-17.95855469 161.4398999 -17.29210937 161.1297998 -16.60546875 160.81030273 C2.02438256 151.93343279 10.89852216 138.54236881 17.90625 119.54296875 C22.35224868 106.13828273 22.37577258 91.90399253 22.3125 77.9375 C22.31034485 77.08104889 22.3081897 76.22459778 22.30596924 75.3421936 C22.19354875 47.46548695 19.51862472 21.42288079 0 0 Z " fill="#166D93" transform="translate(413,234)"/>
<path d="M0 0 C-0.66 2.31 -1.32 4.62 -2 7 C-2.65782471 7.03963867 -3.31564941 7.07927734 -3.9934082 7.12011719 C-32.01539849 8.88443765 -62.61560174 12.46767487 -83 34 C-100.96990824 55.58454496 -98.81784715 87.92068186 -96.53125 114.3984375 C-94.80584982 129.90909499 -90.28371382 144.33094983 -81 157 C-80.41347656 157.80695313 -79.82695312 158.61390625 -79.22265625 159.4453125 C-77.837584 161.31597478 -76.43402372 163.16676089 -75 165 C-78.08672549 163.63609804 -79.18078756 162.78212782 -81.4375 160.0625 C-83.72273767 156.9631684 -83.72273767 156.9631684 -86.47265625 155.61328125 C-94.32958812 150.59795998 -98.37189523 136.44922619 -100.55981445 127.7824707 C-101.97923114 121.30521426 -102.46366773 114.92914923 -102.6875 108.3125 C-102.72584961 107.22743164 -102.76419922 106.14236328 -102.80371094 105.02441406 C-103.56807157 78.95290541 -104.02659422 47.47710994 -87 26 C-84.18165921 23.08910286 -81.30671728 20.35039579 -78 18 C-77.34 18 -76.68 18 -76 18 C-76 17.34 -76 16.68 -76 16 C-75.01 16 -74.02 16 -73 16 C-73 15.34 -73 14.68 -73 14 C-49.3946081 2.66197712 -25.92099197 -0.28243212 0 0 Z " fill="#6B16B4" transform="translate(246,214)"/>
<path d="M0 0 C0.72614502 -0.00918457 1.45229004 -0.01836914 2.20043945 -0.02783203 C6.05903804 -0.00523806 8.57880955 0.43561465 11.9375 2.25 C14.0117625 2.53480806 16.09821439 2.73874224 18.1875 2.875 C19.80398438 2.98714844 19.80398438 2.98714844 21.453125 3.1015625 C22.27296875 3.15054688 23.0928125 3.19953125 23.9375 3.25 C24.4325 5.23 24.4325 5.23 24.9375 7.25 C24.2775 7.58 23.6175 7.91 22.9375 8.25 C22.525 9.03375 22.1125 9.8175 21.6875 10.625 C19.52482826 13.86900761 17.43625956 14.64640187 13.9375 16.25 C11.90003657 17.92363067 11.06792717 18.88045635 10.1875 21.375 C9.775 21.99375 9.3625 22.6125 8.9375 23.25 C7.346388 23.45753635 5.75344926 23.65476513 4.15625 23.80859375 C-4.71273357 25.57302182 -13.41870897 32.12709802 -21.09912109 36.73413086 C-33.43709929 44.12504598 -33.43709929 44.12504598 -41.0625 43.25 C-43.125 41.5625 -43.125 41.5625 -44.0625 39.25 C-43.82175978 35.87963689 -43.47451979 34.66201979 -41.0625 32.25 C-40.340625 32.12625 -39.61875 32.0025 -38.875 31.875 C-33.86519282 30.76170951 -30.09721275 28.71862455 -27.125 24.5 C-26.5990625 23.38625 -26.5990625 23.38625 -26.0625 22.25 C-23.4225 22.58 -20.7825 22.91 -18.0625 23.25 C-18.0625 22.59 -18.0625 21.93 -18.0625 21.25 C-17.4025 20.92 -16.7425 20.59 -16.0625 20.25 C-15.959375 19.610625 -15.85625 18.97125 -15.75 18.3125 C-15.0625 16.25 -15.0625 16.25 -12.75 15 C-9.16367297 13.99916455 -5.77458455 14.25 -2.0625 14.25 C-1.7325 13.26 -1.4025 12.27 -1.0625 11.25 C1.00390625 9.86328125 1.00390625 9.86328125 3.5 8.5625 C4.32628906 8.12550781 5.15257812 7.68851563 6.00390625 7.23828125 C6.96103516 6.74908203 6.96103516 6.74908203 7.9375 6.25 C-13.26562517 5.29679193 -13.26562517 5.29679193 -33.3125 11.40625 C-35.0625 12.25 -35.0625 12.25 -37.3125 11.875 C-37.89 11.66875 -38.4675 11.4625 -39.0625 11.25 C-38.4025 11.25 -37.7425 11.25 -37.0625 11.25 C-36.7325 10.26 -36.4025 9.27 -36.0625 8.25 C-34.42578125 7.15234375 -34.42578125 7.15234375 -32.375 6.1875 C-31.71113281 5.86652344 -31.04726563 5.54554688 -30.36328125 5.21484375 C-20.59673872 1.11919688 -10.50260935 0.07433482 0 0 Z " fill="#261D1D" transform="translate(290.0625,196.75)"/>
<path d="M0 0 C3.4568591 0.00317861 6.91287327 -0.02049916 10.36962891 -0.0456543 C36.59736282 -0.11938202 71.536326 0.82458859 91.72509766 20.47973633 C104.31228823 34.9089548 105.68686434 51.80645139 105.63916016 70.31567383 C105.65527344 71.56606445 105.67138672 72.81645508 105.68798828 74.10473633 C105.69728192 92.06004813 101.45240878 107.85045297 89.32666016 121.31567383 C88.54548828 122.2534668 88.54548828 122.2534668 87.74853516 123.21020508 C78.68447759 133.35004725 61.75624248 141.37872622 48.32666016 142.31567383 C48.98666016 141.98567383 49.64666016 141.65567383 50.32666016 141.31567383 C50.32666016 140.65567383 50.32666016 139.99567383 50.32666016 139.31567383 C50.90931641 139.15711914 51.49197266 138.99856445 52.09228516 138.83520508 C67.00579398 134.59095178 80.04521221 128.27836483 90.32666016 116.31567383 C90.65666016 115.65567383 90.98666016 114.99567383 91.32666016 114.31567383 C91.98666016 114.31567383 92.64666016 114.31567383 93.32666016 114.31567383 C94.31666016 111.34567383 95.30666016 108.37567383 96.32666016 105.31567383 C96.98666016 105.31567383 97.64666016 105.31567383 98.32666016 105.31567383 C98.45991699 104.43556641 98.59317383 103.55545898 98.73046875 102.64868164 C99.26456933 99.66279258 100.00881674 96.89211922 100.86572266 93.98754883 C102.65732901 86.91277686 102.78065521 80.00562919 102.71777344 72.76293945 C102.70177955 70.58195477 102.71765962 68.40285048 102.73681641 66.22192383 C102.75505192 53.88438616 102.23706652 39.93166041 95.32666016 29.31567383 C94.99150391 28.72786133 94.65634766 28.14004883 94.31103516 27.53442383 C90.49359275 21.40500927 84.16157683 16.59397939 77.32666016 14.31567383 C77.32666016 13.65567383 77.32666016 12.99567383 77.32666016 12.31567383 C76.33666016 12.21254883 75.34666016 12.10942383 74.32666016 12.00317383 C70.83271304 11.51176257 67.80497606 10.35779855 64.51269531 9.09326172 C60.91194558 7.81245003 57.24691799 6.98895395 53.51416016 6.19067383 C52.80324219 6.02180664 52.09232422 5.85293945 51.35986328 5.67895508 C35.52692588 2.26795754 18.61422847 3.15379488 2.51977539 3.18530273 C-0.73539878 3.1906731 -3.99043539 3.18531522 -7.24560547 3.17895508 C-54.45971951 3.1603154 -54.45971951 3.1603154 -96.04443359 23.35083008 C-107.7793559 35.57378318 -109.07090227 51.74193732 -109.04833984 67.87817383 C-109.04779602 68.53597839 -109.0472522 69.19378296 -109.04669189 69.871521 C-108.98529281 86.06368685 -107.19417406 102.20498049 -96.98974609 115.51098633 C-95.67333984 117.31567383 -95.67333984 117.31567383 -95.67333984 119.31567383 C-95.01333984 119.31567383 -94.35333984 119.31567383 -93.67333984 119.31567383 C-93.09712891 120.05043945 -92.52091797 120.78520508 -91.92724609 121.54223633 C-84.79620423 130.31700188 -73.41111479 134.56309218 -62.98364258 138.02026367 C-62.20706299 138.2801709 -61.4304834 138.54007813 -60.63037109 138.80786133 C-59.93919189 139.02812988 -59.2480127 139.24839844 -58.53588867 139.4753418 C-56.42395478 140.42818967 -55.20477619 141.59709841 -53.67333984 143.31567383 C-67.05127117 142.38232978 -81.46154515 134.8115522 -91.67333984 126.31567383 C-91.67333984 125.65567383 -91.67333984 124.99567383 -91.67333984 124.31567383 C-92.33333984 124.31567383 -92.99333984 124.31567383 -93.67333984 124.31567383 C-93.67333984 123.65567383 -93.67333984 122.99567383 -93.67333984 122.31567383 C-94.33333984 122.31567383 -94.99333984 122.31567383 -95.67333984 122.31567383 C-102.10024558 115.23614632 -105.7714053 107.32818599 -108.67333984 98.31567383 C-108.90794922 97.61958008 -109.14255859 96.92348633 -109.38427734 96.20629883 C-115.05939441 76.96024966 -113.94103734 47.83312408 -104.37255859 29.87426758 C-102.07955843 25.98496052 -102.07955843 25.98496052 -100.67333984 24.31567383 C-100.01333984 24.31567383 -99.35333984 24.31567383 -98.67333984 24.31567383 C-98.67333984 23.65567383 -98.67333984 22.99567383 -98.67333984 22.31567383 C-98.01333984 22.31567383 -97.35333984 22.31567383 -96.67333984 22.31567383 C-96.67333984 21.65567383 -96.67333984 20.99567383 -96.67333984 20.31567383 C-94.54833984 18.72973633 -94.54833984 18.72973633 -91.67333984 16.94067383 C-90.74521484 16.35543945 -89.81708984 15.77020508 -88.86083984 15.16723633 C-82.38056557 11.40295936 -76.17772979 8.60735671 -68.92333984 6.69067383 C-68.12750488 6.47757568 -67.33166992 6.26447754 -66.51171875 6.04492188 C-44.88353256 0.37371595 -22.2476981 -0.04259593 0 0 Z " fill="#060101" transform="translate(280.67333984375,238.684326171875)"/>
<path d="M0 0 C3.77133001 2.17204805 7.13007601 4.23068036 8.8125 8.375 C9.7130693 14.52396905 10.23699766 21.1408558 6.75 26.5625 C2.42346684 31.33494326 -2.41251475 32.5445896 -8.625 33 C-14.05402011 32.85064594 -16.84522462 31.13380208 -20.59375 27.30078125 C-24.22909049 22.90807816 -25.78300199 19.19363817 -25.5390625 13.39453125 C-24.71314805 8.65011159 -22.20150262 5.31295242 -18.6875 2.0625 C-17.45 1.2271875 -17.45 1.2271875 -16.1875 0.375 C-15.589375 -0.0375 -14.99125 -0.45 -14.375 -0.875 C-9.30625623 -2.61285501 -4.78602053 -2.17135147 0 0 Z " fill="#3F4FA7" transform="translate(414.1875,262.625)"/>
<path d="M0 0 C0.66 1.32 1.32 2.64 2 4 C-1.95523655 6.75668002 -5.22423661 7.5317879 -10 8 C-8.95125002 10.62187494 -8.35068687 11.79371361 -5.875 13.25 C-5.25625 13.4975 -4.6375 13.745 -4 14 C-4 14.66 -4 15.32 -4 16 C-3.34 16 -2.68 16 -2 16 C-2 16.66 -2 17.32 -2 18 C-1.34 18 -0.68 18 0 18 C0.49079755 25.36196319 0.49079755 25.36196319 -1.875 28.4375 C-5.26398444 30.92940032 -7.2592311 31.15975585 -11.4375 31.1875 C-12.40558594 31.20167969 -13.37367188 31.21585937 -14.37109375 31.23046875 C-17 31 -17 31 -20 29 C-19.67 27.02 -19.34 25.04 -19 23 C-15.04 23.33 -11.08 23.66 -7 24 C-9.8580665 19.23655583 -10.59365127 18.50090063 -15 16 C-15 15.34 -15 14.68 -15 14 C-15.66 14 -16.32 14 -17 14 C-17 13.34 -17 12.68 -17 12 C-17.66 12 -18.32 12 -19 12 C-19.66 15.63 -20.32 19.26 -21 23 C-21.66 23 -22.32 23 -23 23 C-23.33 24.32 -23.66 25.64 -24 27 C-26.1875 27.375 -26.1875 27.375 -29 27 C-30.99022836 25.16038352 -32.38989899 23.20813852 -34 21 C-34.45375 21.94875 -34.9075 22.8975 -35.375 23.875 C-37 27 -37 27 -39 29 C-41.625 29.125 -41.625 29.125 -44 29 C-49.24074967 22.28528949 -48.37488712 15.0913137 -48 7 C-46.125 5.9375 -46.125 5.9375 -44 5 C-43.34 5.33 -42.68 5.66 -42 6 C-41.62109375 8.46875 -41.62109375 8.46875 -41.4375 11.5 C-41.50678967 15.06330354 -41.50678967 15.06330354 -40 18 C-38.68 15.69 -37.36 13.38 -36 11 C-32.85375007 10.73781251 -31.38162983 10.75245633 -28.6875 12.5 C-28.130625 12.995 -27.57375 13.49 -27 14 C-27.02320313 13.37351562 -27.04640625 12.74703125 -27.0703125 12.1015625 C-27.08835938 11.28429687 -27.10640625 10.46703125 -27.125 9.625 C-27.14820313 8.81289063 -27.17140625 8.00078125 -27.1953125 7.1640625 C-27 5 -27 5 -25 3 C-23.0625 3.375 -23.0625 3.375 -21 4 C-17.68845596 4 -15.80517111 3.22889564 -12.75 2 C-8.19700742 0.28280227 -4.82540597 -0.42892497 0 0 Z " fill="#000000" transform="translate(275,295)"/>
<path d="M0 0 C7.26965137 0.99532488 11.79462346 6.2421514 16.1875 11.8125 C28.2704689 28.93822557 30.36282022 49.33705353 30.26074219 69.70947266 C30.25007465 72.23234415 30.26066855 74.75449449 30.2734375 77.27734375 C30.28098101 85.41600083 30.01909608 93.45482428 29.109375 101.546875 C28.99314789 102.61110687 28.99314789 102.61110687 28.87457275 103.69683838 C28.43741862 107.16159102 27.97505449 109.03741827 26 112 C25.34 111.34 24.68 110.68 24 110 C22.515 110.99 22.515 110.99 21 112 C20.93288555 108.17447628 20.89541303 104.66229791 21.4934082 100.87548828 C22.03480659 96.73372539 22.17856384 92.72837021 22.203125 88.55859375 C22.21018463 87.76205383 22.21724426 86.96551392 22.22451782 86.14483643 C22.43836278 54.88852748 22.20653475 24.37302594 0 0 Z " fill="#05848C" transform="translate(413,234)"/>
<path d="M0 0 C1.9375 1.5625 1.9375 1.5625 3 4 C2.9375 7.625 2.9375 7.625 2 11 C1.08541016 11.36351562 1.08541016 11.36351562 0.15234375 11.734375 C-3.25604798 13.73858356 -4.06757557 17.07627656 -5.375 20.625 C-5.65988281 21.31207031 -5.94476563 21.99914062 -6.23828125 22.70703125 C-9.58175568 31.57306047 -5.48635568 38.56695834 -1.92578125 46.8515625 C0.07649018 53.66097505 -3.34046486 59.73413073 -6.09179688 65.90234375 C-8.30142151 71.3245432 -7.86483517 74.46125369 -6 80 C-10.34390483 81.08597621 -13.00609492 80.99695254 -17 79 C-17.58639663 71.34426616 -16.18623537 65.91901476 -13 59 C-9.36314808 50.70498842 -12.9284747 43.11394601 -16 35 C-16.33 34.67 -16.66 34.34 -17 34 C-17.46300784 28.23812463 -16.23629814 24.19323857 -14.0625 19 C-11.97097219 13.93374702 -10.71985329 9.48039252 -10 4 C-7.2007061 -0.04342453 -4.83280859 -0.82260572 0 0 Z " fill="#1F1413" transform="translate(316,119)"/>
<path d="M0 0 C0.66 0.66 1.32 1.32 2 2 C2.67417969 1.67257812 3.34835937 1.34515625 4.04296875 1.0078125 C7.61501454 -0.20960865 10.54711647 -0.195381 14.3125 -0.125 C15.56675781 -0.10695313 16.82101562 -0.08890625 18.11328125 -0.0703125 C19.54220703 -0.03550781 19.54220703 -0.03550781 21 0 C21.495 1.485 21.495 1.485 22 3 C20.75 4.5 20.75 4.5 19 6 C17.68 6 16.36 6 15 6 C14.9498877 6.68626465 14.89977539 7.3725293 14.84814453 8.07958984 C14.61652728 11.1788493 14.37094351 14.27684593 14.125 17.375 C14.04636719 18.45523437 13.96773438 19.53546875 13.88671875 20.6484375 C13.80292969 21.6796875 13.71914063 22.7109375 13.6328125 23.7734375 C13.55949707 24.72653809 13.48618164 25.67963867 13.41064453 26.66162109 C13 29 13 29 11 31 C9.68 31 8.36 31 7 31 C3.64171283 24.28342565 6.78527724 14.01719306 8 7 C6.02 7.66 4.04 8.32 2 9 C1.34 7.68 0.68 6.36 0 5 C-0.515625 5.309375 -1.03125 5.61875 -1.5625 5.9375 C-4.66665423 7.29059287 -7.65115007 7.61359424 -11 8 C-9.74523029 11.76430913 -8.30577382 12.05044108 -5 14 C-5 14.66 -5 15.32 -5 16 C-4.34 16 -3.68 16 -3 16 C-3 16.66 -3 17.32 -3 18 C-2.34 18 -1.68 18 -1 18 C-0.50920245 25.36196319 -0.50920245 25.36196319 -2.875 28.4375 C-6.26398444 30.92940032 -8.2592311 31.15975585 -12.4375 31.1875 C-13.40558594 31.20167969 -14.37367188 31.21585937 -15.37109375 31.23046875 C-18 31 -18 31 -21 29 C-20.67 27.02 -20.34 25.04 -20 23 C-16.04 23.33 -12.08 23.66 -8 24 C-10.76060516 19.22792557 -10.76060516 19.22792557 -14.6875 16.3125 C-16.57421875 15.11328125 -16.57421875 15.11328125 -18 14 C-18 13.34 -18 12.68 -18 12 C-18.66 12 -19.32 12 -20 12 C-20.66 10.68 -21.32 9.36 -22 8 C-16.21710598 1.09783617 -8.81601616 -0.77333475 0 0 Z " fill="#010101" transform="translate(340,295)"/>
<path d="M0 0 C1.32 0 2.64 0 4 0 C4 0.66 4 1.32 4 2 C4.66 2 5.32 2 6 2 C6.27714844 3.14339844 6.55429687 4.28679687 6.83984375 5.46484375 C7.20554378 6.95577465 7.57143929 8.44665761 7.9375 9.9375 C8.11990234 10.69224609 8.30230469 11.44699219 8.49023438 12.22460938 C9.13839179 15.91279821 9.13839179 15.91279821 11 19 C11.07244053 21.01964199 11.08377188 23.04167124 11.0625 25.0625 C11.05347656 26.16722656 11.04445313 27.27195312 11.03515625 28.41015625 C11.02355469 29.26480469 11.01195312 30.11945313 11 31 C9.35 30.67 7.7 30.34 6 30 C5.34 27.69 4.68 25.38 4 23 C2.06890419 22.95710245 2.06890419 22.95710245 0 24 C-1.79271391 27.48797488 -1.79271391 27.48797488 -3 31 C-4.134375 30.814375 -5.26875 30.62875 -6.4375 30.4375 C-7.613125 30.293125 -8.78875 30.14875 -10 30 C-10.33 30.33 -10.66 30.66 -11 31 C-17.81819953 31.79676278 -22.48932387 31.13300709 -28 27 C-30.6524593 23.6555948 -30.42794993 20.1368493 -30 16 C-26.94736842 10.31578947 -26.94736842 10.31578947 -23 9 C-23 8.34 -23 7.68 -23 7 C-21.37536158 6.94604522 -19.75021459 6.90722805 -18.125 6.875 C-16.76761719 6.84019531 -16.76761719 6.84019531 -15.3828125 6.8046875 C-13 7 -13 7 -11 9 C-11.53571429 12.53571429 -11.53571429 12.53571429 -13 14 C-14.51928038 14.07179964 -16.04167482 14.08392007 -17.5625 14.0625 C-18.38878906 14.05347656 -19.21507812 14.04445313 -20.06640625 14.03515625 C-20.70449219 14.02355469 -21.34257812 14.01195312 -22 14 C-22.29562367 19.32170494 -22.29562367 19.32170494 -20 24 C-19.22914063 23.91621094 -18.45828125 23.83242188 -17.6640625 23.74609375 C-16.66117187 23.64425781 -15.65828125 23.54242188 -14.625 23.4375 C-13.62726563 23.33308594 -12.62953125 23.22867187 -11.6015625 23.12109375 C-9 23 -9 23 -7 24 C-6.81824219 23.09378906 -6.63648438 22.18757813 -6.44921875 21.25390625 C-2.6 2.6 -2.6 2.6 0 0 Z M2 13 C1.67 14.65 1.34 16.3 1 18 C1.66 18 2.32 18 3 18 C3 16.35 3 14.7 3 13 C2.67 13 2.34 13 2 13 Z " fill="#000000" transform="translate(307,295)"/>
<path d="M0 0 C2.5 0.3125 2.5 0.3125 5.5 2.3125 C6.375 5.75 6.375 5.75 6.5 9.3125 C5.03728198 11.75036336 3.96690808 12.18280331 1.25 12.9375 C-0.74132628 13.20904449 -2.7369118 13.44993464 -4.734375 13.671875 C-11.49651833 14.82228113 -19.47690589 17.26273851 -23.77099609 23.01513672 C-26.20193346 27.24547121 -27.81993405 31.7452826 -29.5 36.3125 C-31.53356088 41.32462945 -33.12173445 43.16550511 -38.0625 45.375 C-39.12855469 45.87902344 -40.19460938 46.38304687 -41.29296875 46.90234375 C-43.27582912 47.77422267 -45.27647072 48.60814366 -47.30078125 49.37890625 C-54.28519291 52.25109982 -56.542237 56.00038529 -59.5390625 62.86328125 C-60.01472656 64.07564453 -60.01472656 64.07564453 -60.5 65.3125 C-61.16 64.9825 -61.82 64.6525 -62.5 64.3125 C-61.14807996 58.4449831 -59.3945042 53.19631348 -54.21923828 49.828125 C-50.55770338 47.95186637 -46.85038622 46.31725659 -43.0168457 44.82470703 C-36.9202029 42.43851467 -36.9202029 42.43851467 -32.8515625 37.5234375 C-32.18253906 35.93402344 -32.18253906 35.93402344 -31.5 34.3125 C-31.83 33.9825 -32.16 33.6525 -32.5 33.3125 C-32.83 34.3025 -33.16 35.2925 -33.5 36.3125 C-35.03125 37.41577148 -35.03125 37.41577148 -37 38.43359375 C-37.71816895 38.80887207 -38.43633789 39.18415039 -39.17626953 39.57080078 C-40.32651611 40.15450439 -40.32651611 40.15450439 -41.5 40.75 C-42.27585449 41.15976074 -43.05170898 41.56952148 -43.85107422 41.99169922 C-47.73133653 44.01685604 -51.42590064 45.67191779 -55.625 46.9375 C-60.79001732 49.01156154 -62.41184361 54.3784595 -64.47119141 59.18212891 C-65.16747503 60.88420195 -65.83655643 62.59735972 -66.5 64.3125 C-66.83 64.3125 -67.16 64.3125 -67.5 64.3125 C-67.06630722 57.51797977 -64.54413092 51.77429532 -60.01953125 46.62890625 C-56.8999126 43.92630603 -52.42071397 42.66054469 -48.5859375 41.2109375 C-40.99185109 37.98863284 -37.88644632 34.87037386 -34.66015625 27.2890625 C-34.08587891 25.81566406 -34.08587891 25.81566406 -33.5 24.3125 C-32.83325308 22.80316081 -32.14853388 21.3014886 -31.4375 19.8125 C-31.17839844 19.2246875 -30.91929687 18.636875 -30.65234375 18.03125 C-26.98859439 12.56667468 -20.64847651 10.34369058 -14.875 7.75 C-13.17169563 6.98402453 -11.47104786 6.21210725 -9.7734375 5.43359375 C-9.02497559 5.0977124 -8.27651367 4.76183105 -7.50537109 4.41577148 C-5.43667159 3.39928491 -5.43667159 3.39928491 -3.88916016 1.69946289 C-2.5 0.3125 -2.5 0.3125 0 0 Z " fill="#1F1413" transform="translate(383.5,135.6875)"/>
<path d="M0 0 C-0.66 2.31 -1.32 4.62 -2 7 C-2.65782471 7.03963867 -3.31564941 7.07927734 -3.9934082 7.12011719 C-27.71385804 8.61360407 -49.651477 11.63147763 -70.515625 23.67578125 C-74.21640652 25.64836762 -77.98459692 26.81512696 -82 28 C-82 27.01 -82 26.02 -82 25 C-81.43410156 24.74605469 -80.86820313 24.49210937 -80.28515625 24.23046875 C-79.55167969 23.88628906 -78.81820312 23.54210937 -78.0625 23.1875 C-77.33160156 22.85105469 -76.60070312 22.51460937 -75.84765625 22.16796875 C-73.66970511 21.06399866 -73.66970511 21.06399866 -73 18 C-71.68 18.33 -70.36 18.66 -69 19 C-68.67 17.35 -68.34 15.7 -68 14 C-65.525 14.495 -65.525 14.495 -63 15 C-62.34 13.68 -61.68 12.36 -61 11 C-59.02 11 -57.04 11 -55 11 C-55 9.68 -55 8.36 -55 7 C-38.05787901 -0.60179674 -18.16978826 -0.1979759 0 0 Z " fill="#592EAD" transform="translate(246,214)"/>
<path d="M0 0 C1.9375 1.5625 1.9375 1.5625 3 4 C2.9375 7.625 2.9375 7.625 2 11 C1.08541016 11.36351562 1.08541016 11.36351562 0.15234375 11.734375 C-3.25604798 13.73858356 -4.06757557 17.07627656 -5.375 20.625 C-5.65988281 21.31207031 -5.94476563 21.99914062 -6.23828125 22.70703125 C-9.58175568 31.57306047 -5.48635568 38.56695834 -1.92578125 46.8515625 C0.07649018 53.66097505 -3.34046486 59.73413073 -6.09179688 65.90234375 C-8.30142151 71.3245432 -7.86483517 74.46125369 -6 80 C-6.99 80.495 -6.99 80.495 -8 81 C-10.28772408 77.2481325 -11.51119071 74.52496563 -10.66015625 70.11328125 C-9.47545419 66.32083265 -7.76148 62.74441825 -6.05859375 59.16015625 C-3.34885395 51.07093301 -5.73309918 45.22701502 -8.95507812 37.82421875 C-11.90422181 30.64912565 -10.15808209 25.92243857 -7.75 18.8125 C-7.35296875 17.60207031 -6.9559375 16.39164063 -6.546875 15.14453125 C-4.79833902 11.59005786 -3.4201445 10.8009731 0 9 C0.50059916 6.41482413 0.50059916 6.41482413 0 4 C-1.06645115 2.70366379 -1.06645115 2.70366379 -3.5625 2.9375 C-4.366875 2.958125 -5.17125 2.97875 -6 3 C-6.32613281 4.05058594 -6.65226562 5.10117188 -6.98828125 6.18359375 C-7.19888184 6.85970703 -7.40948242 7.53582031 -7.62646484 8.23242188 C-8.08566872 9.70841098 -8.54301139 11.18498036 -8.99853516 12.66210938 C-10.18576609 16.49035793 -11.45348139 20.25115789 -12.875 24 C-15.13957956 30.92388693 -13.04052374 36.03722178 -10.375 42.5 C-6.49777911 52.32830412 -9.05296307 57.25019343 -12.921875 66.7890625 C-14.3751908 71.11741608 -14.38297439 74.48090222 -14 79 C-14.99 79 -15.98 79 -17 79 C-17.58639663 71.34426616 -16.18623537 65.91901476 -13 59 C-9.36314808 50.70498842 -12.9284747 43.11394601 -16 35 C-16.33 34.67 -16.66 34.34 -17 34 C-17.46300784 28.23812463 -16.23629814 24.19323857 -14.0625 19 C-11.97097219 13.93374702 -10.71985329 9.48039252 -10 4 C-7.2007061 -0.04342453 -4.83280859 -0.82260572 0 0 Z " fill="#050101" transform="translate(316,119)"/>
<path d="M0 0 C0.53625 0.33 1.0725 0.66 1.625 1 C1.625 2.32 1.625 3.64 1.625 5 C-1.13764289 5.59732819 -3.53532769 6 -6.375 6 C-6.705 7.32 -7.035 8.64 -7.375 10 C-6.26125 9.938125 -5.1475 9.87625 -4 9.8125 C-2.205625 9.9053125 -2.205625 9.9053125 -0.375 10 C0.615 11.485 0.615 11.485 1.625 13 C-0.375 15 -0.375 15 -3.4375 15.875 C-4.406875 16.24625 -5.37625 16.6175 -6.375 17 C-7.34377057 19.03243548 -7.34377057 19.03243548 -7.375 21 C-6.3025 20.67 -5.23 20.34 -4.125 20 C-0.375 19 -0.375 19 3.625 19 C3.625 20.65 3.625 22.3 3.625 24 C-1.36796295 26.9445679 -5.71057626 27.63495936 -11.375 28 C-14.42285321 23.42822019 -13.78301391 18.87957311 -13.8125 13.5 C-13.84537109 12.44167969 -13.87824219 11.38335937 -13.91210938 10.29296875 C-13.9320424 7.44073421 -13.89087183 4.8057259 -13.375 2 C-9.4503867 -1.69491185 -4.94553666 -2.08233123 0 0 Z " fill="#000000" transform="translate(221.375,298)"/>
<path d="M0 0 C3.69230769 0.69230769 3.69230769 0.69230769 5 2 C5.87827062 6.39135308 6.1350878 10.71139617 6.25 15.1875 C6.27578125 16.19167969 6.3015625 17.19585937 6.328125 18.23046875 C5.95694021 21.36344517 5.09249575 22.6927481 3 25 C0.5625 24.625 0.5625 24.625 -2 24 C-2.33 23.34 -2.66 22.68 -3 22 C-3.99 24.475 -3.99 24.475 -5 27 C-6.66611905 27.042721 -8.33382885 27.04063832 -10 27 C-10.33 26.67 -10.66 26.34 -11 26 C-10.93473835 23.40139971 -10.80744837 20.8407669 -10.625 18.25 C-10.55925781 17.17492187 -10.55925781 17.17492187 -10.4921875 16.078125 C-10.24294239 12.31175446 -9.85447448 8.67858505 -9 5 C-7.35 5 -5.7 5 -4 5 C-4 5.66 -4 6.32 -4 7 C-3.34 7 -2.68 7 -2 7 C-1.67 8.32 -1.34 9.64 -1 11 C-1.01160156 10.28972656 -1.02320313 9.57945312 -1.03515625 8.84765625 C-1.04869141 7.46900391 -1.04869141 7.46900391 -1.0625 6.0625 C-1.07410156 5.14597656 -1.08570313 4.22945313 -1.09765625 3.28515625 C-1 1 -1 1 0 0 Z " fill="#000000" transform="translate(201,297)"/>
<path d="M0 0 C0.66 0.99 1.32 1.98 2 3 C1.01 4.485 1.01 4.485 0 6 C-0.66 6 -1.32 6 -2 6 C-2 6.66 -2 7.32 -2 8 C-1.34 8.33 -0.68 8.66 0 9 C-0.51949219 9.30292969 -1.03898437 9.60585938 -1.57421875 9.91796875 C-5.96506517 12.55572307 -9.45467693 15.25771453 -13 19 C-15.0625 20.875 -15.0625 20.875 -17 22 C-18.98046875 21.80859375 -18.98046875 21.80859375 -21 21 C-22.265625 19.29296875 -22.265625 19.29296875 -23.25 17.1875 C-23.58515625 16.50042969 -23.9203125 15.81335938 -24.265625 15.10546875 C-25 13 -25 13 -25 9 C-24.11957031 8.52949219 -23.23914063 8.05898438 -22.33203125 7.57421875 C-21.17058594 6.95160156 -20.00914062 6.32898438 -18.8125 5.6875 C-17.66394531 5.07261719 -16.51539063 4.45773437 -15.33203125 3.82421875 C-13.2849295 2.70347254 -11.26599418 1.52661944 -9.3046875 0.26171875 C-5.92034982 -1.59106273 -3.64303121 -0.96231013 0 0 Z " fill="#291F1E" transform="translate(402,253)"/>
<path d="M0 0 C3.77133001 2.17204805 7.13007601 4.23068036 8.8125 8.375 C9.7130693 14.52396905 10.23699766 21.1408558 6.75 26.5625 C2.42346684 31.33494326 -2.41251475 32.5445896 -8.625 33 C-14.05402011 32.85064594 -16.84522462 31.13380208 -20.59375 27.30078125 C-24.22909049 22.90807816 -25.78300199 19.19363817 -25.5390625 13.39453125 C-24.71314805 8.65011159 -22.20150262 5.31295242 -18.6875 2.0625 C-17.45 1.2271875 -17.45 1.2271875 -16.1875 0.375 C-15.589375 -0.0375 -14.99125 -0.45 -14.375 -0.875 C-9.30625623 -2.61285501 -4.78602053 -2.17135147 0 0 Z M-20.0625 7.5 C-21.75108494 11.81527261 -21.85396131 15.80497961 -21.1875 20.375 C-19.14121167 24.39449494 -16.98157413 26.97802176 -13.1875 29.375 C-8.24621109 30.28008757 -4.22131377 29.90130519 0.25 27.625 C3.36458728 24.89024044 5.54470753 22.97210466 6.24609375 18.7890625 C6.25440256 12.85657422 6.09725143 8.88526467 1.8125 4.375 C-6.18870029 -1.08036384 -13.73790768 0.33212871 -20.0625 7.5 Z " fill="#E5EAEC" transform="translate(414.1875,262.625)"/>
<path d="M0 0 C7.26965137 0.99532488 11.79462346 6.2421514 16.1875 11.8125 C21.53576635 19.36983289 25.50139215 27.80955799 27 37 C26 40 26 40 24 41 C23.27306096 42.97888961 22.60183749 44.97954558 22 47 C24.475 46.505 24.475 46.505 27 46 C27.33 48.31 27.66 50.62 28 53 C26.68 53 25.36 53 24 53 C23.67 54.65 23.34 56.3 23 58 C22.67 58 22.34 58 22 58 C21.94054199 57.42781738 21.88108398 56.85563477 21.81982422 56.26611328 C19.4656622 34.54972737 15.04316404 16.5107898 0 0 Z " fill="#057D88" transform="translate(413,234)"/>
<path d="M0 0 C-2.57722849 2.57722849 -4.5195478 2.77103349 -8.0625 3.5625 C-9.14660156 3.81128906 -10.23070312 4.06007813 -11.34765625 4.31640625 C-19.60545057 5.86198273 -27.86596659 6.25441203 -36.25 6.5625 C-37.27351563 6.60568359 -38.29703125 6.64886719 -39.3515625 6.69335938 C-56.16105036 7.33439917 -73.00125957 7.05719893 -89.81445312 6.68261719 C-91.61906143 6.64390014 -93.42375835 6.60913014 -95.22851562 6.578125 C-105.64852523 6.39885602 -115.73266103 5.96910377 -126 4 C-128.10409131 3.62457739 -130.20824897 3.24952631 -132.3125 2.875 C-133.87534209 2.58517194 -135.43798396 2.29424751 -137 2 C-137 1.67 -137 1.34 -137 1 C-125.45 1 -113.9 1 -102 1 C-102 1.33 -102 1.66 -102 2 C-105.3 2 -108.6 2 -112 2 C-112 2.66 -112 3.32 -112 4 C-102.86975921 4.07068801 -93.73961788 4.12339526 -84.60915947 4.15543652 C-80.3658036 4.17084379 -76.12263983 4.1916009 -71.87939453 4.22631836 C-37.96089913 6.05628964 -37.96089913 6.05628964 -5.33224487 -0.11531067 C-3 -1 -3 -1 0 0 Z " fill="#00418C" transform="translate(398,405)"/>
<path d="M0 0 C3.47308969 0.55777672 4.73472358 1.51618419 6.8125 4.3125 C9.28472661 7.36095988 11.63182151 9.17002299 15.16796875 10.98046875 C17.19057538 12.10605581 18.88187097 13.42825376 20.6875 14.875 C37.72588131 27.83330916 61.54848577 32.72845688 82.56640625 33.79296875 C92.78589571 34.40916095 102.96767471 36.00203691 113 38 C113 38.33 113 38.66 113 39 C95.3416424 39.40234233 78.3027687 37.4749162 61 34 C60.28956543 33.85836426 59.57913086 33.71672852 58.84716797 33.57080078 C37.42555299 29.19558942 16.22826365 20.43197865 2 3 C2 2.34 2 1.68 2 1 C1.34 0.67 0.68 0.34 0 0 Z " fill="#0F0019" transform="translate(159,370)"/>
<path d="M0 0 C2.5625 0.25 2.5625 0.25 5.5625 2.25 C6.4375 5.6875 6.4375 5.6875 6.5625 9.25 C5.09978198 11.68786336 4.02940808 12.12030331 1.3125 12.875 C-0.67882628 13.14654449 -2.6744118 13.38743464 -4.671875 13.609375 C-11.43401833 14.75978113 -19.41440589 17.20023851 -23.70849609 22.95263672 C-26.13943346 27.18297121 -27.75743405 31.6827826 -29.4375 36.25 C-31.47106088 41.26212945 -33.05923445 43.10300511 -38 45.3125 C-39.06605469 45.81652344 -40.13210938 46.32054687 -41.23046875 46.83984375 C-43.21332912 47.71172267 -45.21397072 48.54564366 -47.23828125 49.31640625 C-54.22269291 52.18859982 -56.479737 55.93788529 -59.4765625 62.80078125 C-59.95222656 64.01314453 -59.95222656 64.01314453 -60.4375 65.25 C-61.0975 64.92 -61.7575 64.59 -62.4375 64.25 C-61.32754737 59.43265458 -59.82613159 54.92502493 -56.4375 51.25 C-53.13646092 49.25512223 -49.6396676 47.86314714 -46.0625 46.4375 C-38.41127692 43.33690618 -33.76087803 40.79899211 -30.375 33.0625 C-29.59033773 31.10416313 -28.85885522 29.13508511 -28.1472168 27.14916992 C-25.84852566 20.99797683 -23.51606232 17.65249822 -17.48242188 14.79101562 C-16.74572266 14.46810547 -16.00902344 14.14519531 -15.25 13.8125 C-14.53263672 13.46251953 -13.81527344 13.11253906 -13.07617188 12.75195312 C-8.29598117 10.56513356 -4.44339612 9.91383008 0.8059082 10.22241211 C1.3855835 10.23151611 1.96525879 10.24062012 2.5625 10.25 C3.85883621 9.18354885 3.85883621 9.18354885 3.625 6.6875 C3.604375 5.883125 3.58375 5.07875 3.5625 4.25 C1.31374253 3.38149826 1.31374253 3.38149826 -1.4375 3.25 C-3.12227344 4.56037934 -4.78558509 5.89843325 -6.4375 7.25 C-9.38334166 8.4422462 -12.38467742 9.3720641 -15.4375 10.25 C-14.4375 7.25 -14.4375 7.25 -12.22265625 5.93359375 C-10.87494141 5.31677734 -10.87494141 5.31677734 -9.5 4.6875 C-6.24544093 3.18431516 -3.37565305 0.34622083 0 0 Z " fill="#020000" transform="translate(383.4375,135.75)"/>
<path d="M0 0 C0.556875 0.165 1.11375 0.33 1.6875 0.5 C4.18691249 1.04041351 6.45045662 1.07082065 9 1 C5.45156855 4.09056932 1.77233801 6.29429854 -2.33984375 8.51171875 C-5.47725941 10.26701297 -8.51338844 12.15813021 -11.5625 14.0625 C-21.5901273 20.23605092 -21.5901273 20.23605092 -26 22 C-28.90887701 20.84508408 -31.16661715 19.56673599 -33 17 C-33.3125 13.9375 -33.3125 13.9375 -33 11 C-30.40536581 8.40536581 -28.58174655 8.50144452 -25 8 C-23.66262906 7.68325425 -22.32711192 7.35729936 -21 7 C-21 9.31 -21 11.62 -21 14 C-21.66 13.67 -22.32 13.34 -23 13 C-23 12.34 -23 11.68 -23 11 C-23.66 11 -24.32 11 -25 11 C-24.67 12.65 -24.34 14.3 -24 16 C-24.99 16 -25.98 16 -27 16 C-27.33 15.01 -27.66 14.02 -28 13 C-28.66 12.67 -29.32 12.34 -30 12 C-30.33 13.32 -30.66 14.64 -31 16 C-30.34 16 -29.68 16 -29 16 C-28.67 16.66 -28.34 17.32 -28 18 C-24.33118845 17.29445932 -21.29549466 15.72264494 -18 14 C-18.33 12.02 -18.66 10.04 -19 8 C-17.35 7.01 -15.7 6.02 -14 5 C-13.34 6.65 -12.68 8.3 -12 10 C-8.34683329 8.75023244 -7.21934164 8.32901247 -5 5 C-2.875 4.3125 -2.875 4.3125 -1 4 C-0.67 2.68 -0.34 1.36 0 0 Z " fill="#281E1D" transform="translate(368,220)"/>
<path d="M0 0 C0.72614502 -0.00918457 1.45229004 -0.01836914 2.20043945 -0.02783203 C5.93391022 -0.00597074 8.76977408 0.1765794 11.9375 2.25 C11.9375 3.24 11.9375 4.23 11.9375 5.25 C11.16784912 5.2593457 10.39819824 5.26869141 9.60522461 5.27832031 C-12.45568261 5.06253332 -12.45568261 5.06253332 -33.296875 11.40234375 C-35.0625 12.25 -35.0625 12.25 -37.3125 11.875 C-37.89 11.66875 -38.4675 11.4625 -39.0625 11.25 C-38.4025 11.25 -37.7425 11.25 -37.0625 11.25 C-36.7325 10.26 -36.4025 9.27 -36.0625 8.25 C-34.42578125 7.15234375 -34.42578125 7.15234375 -32.375 6.1875 C-31.71113281 5.86652344 -31.04726563 5.54554688 -30.36328125 5.21484375 C-20.59673872 1.11919688 -10.50260935 0.07433482 0 0 Z " fill="#323F92" transform="translate(290.0625,196.75)"/>
<path d="M0 0 C3.625 0.25 3.625 0.25 5.5625 1.75 C5.913125 2.245 6.26375 2.74 6.625 3.25 C5.625 6.25 5.625 6.25 3.625 7.25 C3.3775 7.86875 3.13 8.4875 2.875 9.125 C0.77146916 12.70100243 -2.96428082 13.67808682 -6.6875 15.1875 C-8.57803796 16.11455297 -8.57803796 16.11455297 -8.9375 18.25 C-9.1540625 19.24 -9.1540625 19.24 -9.375 20.25 C-10.365 20.91 -11.355 21.57 -12.375 22.25 C-12.3960571 19.49452835 -12.36847728 16.75408223 -12.3125 14 C-12.32345703 13.22269531 -12.33441406 12.44539063 -12.34570312 11.64453125 C-12.27610764 9.31805365 -12.14049395 7.45184507 -11.375 5.25 C-9.15133053 3.28040548 -7.15337652 2.45179497 -4.375 1.25 C-3.375 0.25 -3.375 0.25 0 0 Z " fill="#271D1C" transform="translate(397.375,304.75)"/>
<path d="M0 0 C2.43867835 2.43867835 2.40239007 3.57618241 2.875 6.9375 C4.43267581 16.10382306 7.33196119 23.69944193 12.828125 31.22265625 C14 33 14 33 14 35 C14.66 35 15.32 35 16 35 C16.86431641 36.10214844 16.86431641 36.10214844 17.74609375 37.2265625 C24.87713562 46.00132806 36.26222505 50.24741835 46.68969727 53.70458984 C47.46627686 53.96449707 48.24285645 54.2244043 49.04296875 54.4921875 C49.73414795 54.71245605 50.42532715 54.93272461 51.13745117 55.15966797 C53.24938506 56.11251584 54.46856365 57.28142458 56 59 C42.62206867 58.06665595 28.21179469 50.49587837 18 42 C18 41.34 18 40.68 18 40 C17.34 40 16.68 40 16 40 C16 39.34 16 38.68 16 38 C15.34 38 14.68 38 14 38 C5.89811672 29.07540893 0.30349517 17.05733031 -1 5 C-0.625 1.9375 -0.625 1.9375 0 0 Z " fill="#0D0403" transform="translate(171,323)"/>
<path d="M0 0 C-0.375 1.9375 -0.375 1.9375 -1 4 C-1.99 4.495 -1.99 4.495 -3 5 C-2.01 6.485 -2.01 6.485 -1 8 C1.58380177 8.25030977 1.58380177 8.25030977 4 8 C3.67 6.35 3.34 4.7 3 3 C4.32 3.66 5.64 4.32 7 5 C7.33 3.35 7.66 1.7 8 0 C11 1.5 11 1.5 14 3 C12.70046886 5.59906228 11.3674411 6.03119513 8.8125 7.375 C5.94993044 8.90382083 3.40667408 10.42217421 0.75 12.3125 C-2.18354975 14.1126328 -3.63093424 14.39636068 -7 14 C-7.33 13.01 -7.66 12.02 -8 11 C-8.66 11 -9.32 11 -10 11 C-11.35439668 8.29120665 -11.06501451 5.99066732 -11 3 C-9.54293274 2.49632243 -8.08429904 1.99717444 -6.625 1.5 C-5.81289063 1.2215625 -5.00078125 0.943125 -4.1640625 0.65625 C-2 0 -2 0 0 0 Z " fill="#291E1D" transform="translate(346,387)"/>
<path d="M0 0 C-0.05985379 2.29240007 -0.14859027 4.58406206 -0.25 6.875 C-0.31960938 8.78925781 -0.31960938 8.78925781 -0.390625 10.7421875 C-1 14 -1 14 -2.875 15.4375 C-5.32768847 16.08674107 -7.47352147 16.14035992 -10 16 C-10.33 15.01 -10.66 14.02 -11 13 C-11.99 12.67 -12.98 12.34 -14 12 C-14.625 9.6875 -14.625 9.6875 -15 7 C-13 4 -13 4 -11.16015625 3.33984375 C-10.46792969 3.20707031 -9.77570313 3.07429688 -9.0625 2.9375 C-5.75575898 2.28851344 -3.18944289 0 0 0 Z " fill="#281F1E" transform="translate(435,332)"/>
<path d="M0 0 C10.33122132 0.49989781 17.77902018 4.03539278 24.8203125 11.64453125 C25.20960938 12.09183594 25.59890625 12.53914062 26 13 C25.67 13.99 25.34 14.98 25 16 C19.77088949 16.52291105 19.77088949 16.52291105 17 16 C15.62464661 14.02866014 14.29788956 12.02318078 13 10 C9.80482535 8.01511878 6.43544246 6.51952263 3 5 C1.66307293 4.34056976 0.32837711 3.67648834 -1 3 C-0.67 2.01 -0.34 1.02 0 0 Z " fill="#275895" transform="translate(321,202)"/>
<path d="M0 0 C0.66 0.66 1.32 1.32 2 2 C1.38511719 2.32613281 0.77023437 2.65226563 0.13671875 2.98828125 C-0.67152344 3.42527344 -1.47976563 3.86226562 -2.3125 4.3125 C-3.51326172 4.95638672 -3.51326172 4.95638672 -4.73828125 5.61328125 C-8.91151363 8.17199886 -10.51026781 10.707475 -12.4375 15.1875 C-13.27963964 17.13025778 -14.13526001 19.0671959 -15 21 C-15.25555664 21.65846924 -15.51111328 22.31693848 -15.77441406 22.99536133 C-18.24696224 28.80179619 -21.16773411 30.86727691 -26.875 33.3125 C-27.56980469 33.63283203 -28.26460938 33.95316406 -28.98046875 34.28320312 C-32.05259416 35.69776935 -35.10510208 37.04023046 -38.265625 38.25 C-42.08756586 40.69604215 -43.18895767 43.58351968 -44.875 47.6875 C-45.18179687 48.38939453 -45.48859375 49.09128906 -45.8046875 49.81445312 C-46.55396587 51.53545189 -47.27942664 53.26678655 -48 55 C-48.33 55 -48.66 55 -49 55 C-48.56630722 48.20547977 -46.04413092 42.46179532 -41.51953125 37.31640625 C-38.3999126 34.61380603 -33.92071397 33.34804469 -30.0859375 31.8984375 C-22.49185109 28.67613284 -19.38644632 25.55787386 -16.16015625 17.9765625 C-15.58587891 16.50316406 -15.58587891 16.50316406 -15 15 C-11.53567173 7.15767446 -7.94235493 3.69411857 0 0 Z " fill="#0B0303" transform="translate(365,145)"/>
<path d="M0 0 C11.55 0 23.1 0 35 0 C35 0.33 35 0.66 35 1 C31.7 1 28.4 1 25 1 C25 1.66 25 2.32 25 3 C33.58 3 42.16 3 51 3 C51.495 3.99 51.495 3.99 52 5 C47.60422496 5.05901588 43.20855438 5.09393248 38.8125 5.125 C37.58595703 5.14175781 36.35941406 5.15851563 35.09570312 5.17578125 C26.8646036 5.21921713 19.08939441 4.49425358 11 3 C9.33771362 2.70440186 9.33771362 2.70440186 7.6418457 2.40283203 C5.09212724 1.94729188 2.54530828 1.47947691 0 1 C0 0.67 0 0.34 0 0 Z " fill="#112A96" transform="translate(261,406)"/>
<path d="M0 0 C0 1.32 0 2.64 0 4 C-3.75 5.125 -3.75 5.125 -6 4 C-6.33 5.32 -6.66 6.64 -7 8 C-10.75 9.125 -10.75 9.125 -13 8 C-13.103125 8.639375 -13.20625 9.27875 -13.3125 9.9375 C-13.539375 10.618125 -13.76625 11.29875 -14 12 C-14.99 12.33 -15.98 12.66 -17 13 C-17.43957031 13.47050781 -17.87914062 13.94101563 -18.33203125 14.42578125 C-20.56256289 16.53094343 -22.79778949 17.20159877 -25.6875 18.1875 C-26.68136719 18.53167969 -27.67523438 18.87585938 -28.69921875 19.23046875 C-29.45847656 19.48441406 -30.21773437 19.73835938 -31 20 C-29.08835436 15.69879732 -26.73448667 13.800865 -23 11 C-22.34 11 -21.68 11 -21 11 C-21 10.34 -21 9.68 -21 9 C-20.01 9 -19.02 9 -18 9 C-18 8.34 -18 7.68 -18 7 C-16.27149655 6.20688633 -14.54216646 5.4155741 -12.8125 4.625 C-11.84957031 4.18414062 -10.88664062 3.74328125 -9.89453125 3.2890625 C-2.50909091 0 -2.50909091 0 0 0 Z " fill="#611FAE" transform="translate(191,221)"/>
<path d="M0 0 C0.66 0.33 1.32 0.66 2 1 C1.34 1.66 0.68 2.32 0 3 C-2.33017611 8.17816913 -2.75269261 13.41375122 -2 19 C-0.00342873 22.85544798 1.39707638 24.59805092 5 27 C7.27912938 27.45394552 7.27912938 27.45394552 9.6875 27.625 C10.49574219 27.69976562 11.30398438 27.77453125 12.13671875 27.8515625 C12.75160156 27.90054687 13.36648438 27.94953125 14 28 C14 28.33 14 28.66 14 29 C12.02 29 10.04 29 8 29 C8 29.66 8 30.32 8 31 C2.68241904 30.67772237 -0.48077209 27.71039585 -4 24 C-6.99232137 19.55978119 -7.93836421 15.2833985 -7 10 C-5.42755391 6.13054934 -3.20193642 2.72164596 0 0 Z " fill="#E3DEE8" transform="translate(396,264)"/>
<path d="M0 0 C0.33 0 0.66 0 1 0 C1 3.3 1 6.6 1 10 C1.9075 9.690625 2.815 9.38125 3.75 9.0625 C6.13817205 8.28175145 8.56246334 7.60938416 11 7 C11.33 9.97 11.66 12.94 12 16 C10.35 16.99 8.7 17.98 7 19 C7 18.34 7 17.68 7 17 C6.01 17 5.02 17 4 17 C4 15.68 4 14.36 4 13 C3.01 13 2.02 13 1 13 C-0.70532323 14.94009522 -0.70532323 14.94009522 -2 17 C-2.66 16.67 -3.32 16.34 -4 16 C-3.51917969 15.46890625 -3.03835938 14.9378125 -2.54296875 14.390625 C-0.61619553 11.40534598 -0.5041576 9.27649984 -0.3125 5.75 C-0.24675781 4.67234375 -0.18101562 3.5946875 -0.11328125 2.484375 C-0.07589844 1.66453125 -0.03851563 0.8446875 0 0 Z " fill="#201919" transform="translate(423,273)"/>
<path d="M0 0 C1.32 0.66 2.64 1.32 4 2 C3.67 3.65 3.34 5.3 3 7 C1.68 7.33 0.36 7.66 -1 8 C-0.67 8.99 -0.34 9.98 0 11 C-1.375 12.5 -1.375 12.5 -3 14 C-3.66 14 -4.32 14 -5 14 C-5 12 -5 12 -4 11 C-5.32 11 -6.64 11 -8 11 C-8.625 8.625 -8.625 8.625 -9 6 C-6.76362469 3.76362469 -4.90380073 3.16152029 -2 2 C-1.34 1.34 -0.68 0.68 0 0 Z " fill="#201615" transform="translate(387,259)"/>
<path d="M0 0 C0.66 1.32 1.32 2.64 2 4 C2.66 4 3.32 4 4 4 C4.33 3.34 4.66 2.68 5 2 C5.51046875 3.12535156 5.51046875 3.12535156 6.03125 4.2734375 C9.16320119 10.8871855 12.623872 16.46010076 17.36328125 22.0390625 C19 24 19 24 20 26 C16.89652278 24.85056399 15.73058662 23.67532234 13.5625 21.0625 C11.28379437 17.96184824 11.28379437 17.96184824 8.54296875 16.65234375 C5.44428046 14.63891034 4.4199893 12.76966326 2.75 9.5 C2.24984375 8.5409375 1.7496875 7.581875 1.234375 6.59375 C0 4 0 4 -1 1 C-0.67 0.67 -0.34 0.34 0 0 Z " fill="#5E14A4" transform="translate(151,353)"/>
<path d="M0 0 C1 3 1 3 0.390625 4.8671875 C-3.25998134 11.29325482 -8.09991051 13.68885892 -15 16 C-15.66 16 -16.32 16 -17 16 C-17 14.68 -17 13.36 -17 12 C-14.87767021 10.82823482 -12.75242209 9.66245215 -10.625 8.5 C-10.02171875 8.16613281 -9.4184375 7.83226562 -8.796875 7.48828125 C-4.2265625 5 -4.2265625 5 -2 5 C-1.855625 4.360625 -1.71125 3.72125 -1.5625 3.0625 C-1 1 -1 1 0 0 Z " fill="#261C1B" transform="translate(352,167)"/>
<path d="M0 0 C0 3.59058544 -0.89631503 4.74787471 -2.875 7.6875 C-3.40867187 8.49574219 -3.94234375 9.30398438 -4.4921875 10.13671875 C-4.98976563 10.75160156 -5.48734375 11.36648438 -6 12 C-6.66 12 -7.32 12 -8 12 C-8 12.66 -8 13.32 -8 14 C-9.375 15.625 -9.375 15.625 -11 17 C-11.66 17 -12.32 17 -13 17 C-13 17.66 -13 18.32 -13 19 C-15.30078125 20.65625 -15.30078125 20.65625 -18.3125 22.5 C-19.29863281 23.1084375 -20.28476562 23.716875 -21.30078125 24.34375 C-22.19152344 24.8903125 -23.08226562 25.436875 -24 26 C-24.99 26.66 -25.98 27.32 -27 28 C-29.1875 27.625 -29.1875 27.625 -31 27 C-30.18917969 26.53851563 -29.37835938 26.07703125 -28.54296875 25.6015625 C-17.0943583 18.85767788 -7.73468007 10.92886535 0 0 Z " fill="#006B8A" transform="translate(428,377)"/>
<path d="M0 0 C0.99 0.33 1.98 0.66 3 1 C3.33 2.65 3.66 4.3 4 6 C2.02 6.33 0.04 6.66 -2 7 C-1.67 8.32 -1.34 9.64 -1 11 C-2.65 10.67 -4.3 10.34 -6 10 C-6.33 9.01 -6.66 8.02 -7 7 C-7.66 7 -8.32 7 -9 7 C-8.67 5.35 -8.34 3.7 -8 2 C-7.01 2.33 -6.02 2.66 -5 3 C-4.01 2.34 -3.02 1.68 -2 1 C-1.34 1.66 -0.68 2.32 0 3 C0 2.01 0 1.02 0 0 Z " fill="#201615" transform="translate(258,229)"/>
<path d="M0 0 C0.33 0.66 0.66 1.32 1 2 C1.804375 1.979375 2.60875 1.95875 3.4375 1.9375 C6 2 6 2 7 3 C7.04063832 4.66617115 7.042721 6.33388095 7 8 C4.625 8.625 4.625 8.625 2 9 C1.34 8.34 0.68 7.68 0 7 C-0.33 8.65 -0.66 10.3 -1 12 C-1.66 12 -2.32 12 -3 12 C-3.66 10.02 -4.32 8.04 -5 6 C-4.01 6 -3.02 6 -2 6 C-2 4.35 -2 2.7 -2 1 C-1.34 0.67 -0.68 0.34 0 0 Z " fill="#201615" transform="translate(266,221)"/>
<path d="M0 0 C0.495 0.99 0.495 0.99 1 2 C-13.73037968 2.51786491 -13.73037968 2.51786491 -18.5625 0.4375 C-22.4283169 -1.17911434 -24.00984337 -0.88670147 -28 0 C-30.875 -0.4375 -30.875 -0.4375 -33 -1 C-33 -1.33 -33 -1.66 -33 -2 C-22.60991031 -4.22644779 -10.19572669 -2.73195479 0 0 Z " fill="#150B0A" transform="translate(384,220)"/>
<path d="M0 0 C1.30710938 0.56267578 1.30710938 0.56267578 2.640625 1.13671875 C3.83171875 1.64847656 5.0228125 2.16023438 6.25 2.6875 C6.8780957 2.95788086 7.50619141 3.22826172 8.15332031 3.50683594 C13.29812313 5.71545033 18.47530283 7.8376883 23.671875 9.921875 C26 11 26 11 28 13 C18.06258723 12.30669213 8.69415152 7.6027861 0 3 C0 2.01 0 1.02 0 0 Z " fill="#150A09" transform="translate(199,369)"/>
<path d="M0 0 C6.52575606 -0.21050826 12.83542684 0.21084231 19.3125 0.9375 C20.08899902 1.02435059 20.86549805 1.11120117 21.66552734 1.20068359 C25.48541816 1.64712147 29.24073215 2.16710832 33 3 C33 3.33 33 3.66 33 4 C22.60010081 4.22663219 12.19372848 4.42493981 2 2 C1.34 1.34 0.68 0.68 0 0 Z " fill="#01004F" transform="translate(239,405)"/>
<path d="M0 0 C0.66 0 1.32 0 2 0 C1.51171875 6.0546875 1.51171875 6.0546875 1 8 C-2 10 -2 10 -4.1875 9.625 C-4.785625 9.41875 -5.38375 9.2125 -6 9 C-6 8.34 -6 7.68 -6 7 C-6.66 7 -7.32 7 -8 7 C-8 5.35 -8 3.7 -8 2 C-7.13375 2.2784375 -7.13375 2.2784375 -6.25 2.5625 C-3.79307475 3.04023546 -2.35602466 2.75729364 0 2 C0 1.34 0 0.68 0 0 Z " fill="#211716" transform="translate(169,283)"/>
<path d="M0 0 C2.06277107 0.14194764 4.12521031 0.28872216 6.1875 0.4375 C7.91033203 0.55931641 7.91033203 0.55931641 9.66796875 0.68359375 C13 1 13 1 15.46875 1.5 C18.74322493 2.14680986 21.98313763 2.34469125 25.3125 2.5625 C26.56675781 2.64628906 27.82101563 2.73007812 29.11328125 2.81640625 C30.54220703 2.90728516 30.54220703 2.90728516 32 3 C30.50390625 4.5390625 30.50390625 4.5390625 28 6 C25.17564486 5.97036353 22.70584128 5.78555265 19.9375 5.375 C18.8093689 5.22538818 18.8093689 5.22538818 17.65844727 5.07275391 C11.62624632 4.22013233 5.79950496 2.87888929 0 1 C0 0.67 0 0.34 0 0 Z " fill="#0B0026" transform="translate(213,401)"/>
<path d="M0 0 C2.49210439 2.49210439 2.26015661 4.00360788 2.2734375 7.41015625 C2.26570313 8.09980469 2.25796875 8.78945313 2.25 9.5 C2.25773437 10.18964844 2.26546875 10.87929688 2.2734375 11.58984375 C2.2542886 16.50153614 1.38366991 17.61633009 -2 21 C-1.67 21.66 -1.34 22.32 -1 23 C-2.32 23.33 -3.64 23.66 -5 24 C-5.125 21.625 -5.125 21.625 -5 19 C-4.34 18.34 -3.68 17.68 -3 17 C-2.01 17 -1.02 17 0 17 C0 11.39 0 5.78 0 0 Z " fill="#138C93" transform="translate(441,309)"/>
<path d="M0 0 C8.29918489 2.53946413 15.86208316 4.90148797 23 10 C22.67 10.66 22.34 11.32 22 12 C19.01532236 10.88074588 16.19549243 9.59908452 13.375 8.125 C8.42840026 5.6043189 3.23949155 3.81070664 -2 2 C-1.34 1.34 -0.68 0.68 0 0 Z " fill="#0C0304" transform="translate(389,221)"/>
<path d="M0 0 C2.5625 0.25 2.5625 0.25 5.5625 2.25 C6.25 5.375 6.25 5.375 6.5625 8.25 C5.9025 8.25 5.2425 8.25 4.5625 8.25 C4.2325 6.93 3.9025 5.61 3.5625 4.25 C1.31374253 3.38149826 1.31374253 3.38149826 -1.4375 3.25 C-3.12227344 4.56037934 -4.78558509 5.89843325 -6.4375 7.25 C-9.38334166 8.4422462 -12.38467742 9.3720641 -15.4375 10.25 C-14.4375 7.25 -14.4375 7.25 -12.22265625 5.93359375 C-11.32417969 5.52238281 -10.42570312 5.11117187 -9.5 4.6875 C-6.24544093 3.18431516 -3.37565305 0.34622083 0 0 Z " fill="#0D0303" transform="translate(383.4375,135.75)"/>
<path d="M0 0 C2.35171131 0.59861742 4.6859378 1.26924352 7 2 C7.33 2.66 7.66 3.32 8 4 C7.01 5.485 7.01 5.485 6 7 C5.34 7 4.68 7 4 7 C4 7.66 4 8.32 4 9 C4.66 9.33 5.32 9.66 6 10 C4.02 10.66 2.04 11.32 0 12 C0 8 0 8 1.375 6.25 C3 5 3 5 5 5 C5 4.34 5 3.68 5 3 C4.1028125 3.309375 4.1028125 3.309375 3.1875 3.625 C1 4 1 4 -2 2 C-1.34 1.34 -0.68 0.68 0 0 Z " fill="#2E2423" transform="translate(396,252)"/>
<path d="M0 0 C3.47308969 0.55777672 4.73472358 1.51618419 6.8125 4.3125 C8.91560007 6.92803055 10.71675828 8.6206531 13.6875 10.1875 C16.80692175 11.89435341 18.18943884 13.01789927 20 16 C15.37234366 15.51898913 13.21475831 13.7809184 9.875 10.625 C8.60269531 9.43777344 8.60269531 9.43777344 7.3046875 8.2265625 C6.54414063 7.49179687 5.78359375 6.75703125 5 6 C4.40445313 5.45085937 3.80890625 4.90171875 3.1953125 4.3359375 C2 3 2 3 2 1 C1.34 0.67 0.68 0.34 0 0 Z " fill="#30016C" transform="translate(159,370)"/>
<path d="M0 0 C-2.24578708 2.24578708 -4.069792 2.85650419 -7 4 C-7.99 4.66 -8.98 5.32 -10 6 C-12.40989747 7.47703393 -13.42141344 8.09643109 -16.25 7.625 C-16.8275 7.41875 -17.405 7.2125 -18 7 C-17.34 7 -16.68 7 -16 7 C-15.67 6.01 -15.34 5.02 -15 4 C-13.29296875 2.8671875 -13.29296875 2.8671875 -11.1875 1.875 C-10.15689453 1.37613281 -10.15689453 1.37613281 -9.10546875 0.8671875 C-5.49964752 -0.61795594 -3.79236285 -1.26412095 0 0 Z " fill="#302A7A" transform="translate(269,201)"/>
<path d="M0 0 C-3.81380107 3.81380107 -9.81358535 4.22488748 -15 5 C-18.73110425 4.96471769 -22.32147482 4.6118589 -26 4 C-26 3.67 -26 3.34 -26 3 C-24.75863281 2.87882812 -23.51726562 2.75765625 -22.23828125 2.6328125 C-20.59631474 2.46392452 -18.95438977 2.2946324 -17.3125 2.125 C-16.49587891 2.04636719 -15.67925781 1.96773438 -14.83789062 1.88671875 C-9.89801484 1.36673183 -4.50573815 -1.50191272 0 0 Z " fill="#00538C" transform="translate(398,405)"/>
<path d="M0 0 C4.10457819 0.52383603 6.21510512 1.65165184 9.25 4.4375 C9.93578125 5.05496094 10.6215625 5.67242187 11.328125 6.30859375 C13 8 13 8 14 10 C13.38125 9.814375 12.7625 9.62875 12.125 9.4375 C9.95839822 8.76313824 9.95839822 8.76313824 8 10 C6.85157077 8.71064081 5.70633773 7.41843421 4.5625 6.125 C3.92441406 5.40570313 3.28632813 4.68640625 2.62890625 3.9453125 C1 2 1 2 0 0 Z " fill="#046474" transform="translate(413,234)"/>
<path d="M0 0 C1.96301592 3.50538557 2.95902388 7.13351728 4 11 C2.68 11.33 1.36 11.66 0 12 C-3.05153707 5.65280289 -3.05153707 5.65280289 -2.8125 2.625 C-2 1 -2 1 0 0 Z " fill="#271D1C" transform="translate(304,147)"/>
<path d="M0 0 C8.25 0 16.5 0 25 0 C25 0.33 25 0.66 25 1 C21.7 1 18.4 1 15 1 C15 1.66 15 2.32 15 3 C13.06183265 2.8858134 11.12444901 2.75826577 9.1875 2.625 C8.10855469 2.55539062 7.02960938 2.48578125 5.91796875 2.4140625 C3 2 3 2 0 0 Z " fill="#3A46A0" transform="translate(271,406)"/>
<path d="M0 0 C0.33 0 0.66 0 1 0 C1 3.3 1 6.6 1 10 C2.65 10 4.3 10 6 10 C5.67 11.65 5.34 13.3 5 15 C4.67 14.34 4.34 13.68 4 13 C3.01 13 2.02 13 1 13 C-0.70532323 14.94009522 -0.70532323 14.94009522 -2 17 C-2.66 16.67 -3.32 16.34 -4 16 C-3.51917969 15.46890625 -3.03835938 14.9378125 -2.54296875 14.390625 C-0.61619553 11.40534598 -0.5041576 9.27649984 -0.3125 5.75 C-0.24675781 4.67234375 -0.18101562 3.5946875 -0.11328125 2.484375 C-0.07589844 1.66453125 -0.03851563 0.8446875 0 0 Z " fill="#483F3E" transform="translate(423,273)"/>
<path d="M0 0 C2.25624743 2.91150492 4.2295298 5.9049705 6.125 9.0625 C6.64320313 9.91972656 7.16140625 10.77695312 7.6953125 11.66015625 C9 14 9 14 10 17 C5.9464249 15.51398223 4.75453178 13.32175432 2.8125 9.5625 C2.30332031 8.59441406 1.79414063 7.62632812 1.26953125 6.62890625 C0 4 0 4 -1 1 C-0.67 0.67 -0.34 0.34 0 0 Z " fill="#4C03A5" transform="translate(151,353)"/>
<path d="M0 0 C2.125 0.375 2.125 0.375 4 1 C4.33 2.32 4.66 3.64 5 5 C3.35 5.66 1.7 6.32 0 7 C-0.66 5.35 -1.32 3.7 -2 2 C-1.34 1.34 -0.68 0.68 0 0 Z " fill="#201615" transform="translate(275,219)"/>
<path d="M0 0 C6.62177926 0.30656385 11.22125154 1.74288723 17 5 C17 5.66 17 6.32 17 7 C11.27789404 5.13236819 5.62338249 3.14710968 0 1 C0 0.67 0 0.34 0 0 Z " fill="#163E81" transform="translate(321,202)"/>
<path d="M0 0 C3.7602985 0.58107632 6.53035032 1.65199496 9.8125 3.5625 C10.60269531 4.01753906 11.39289063 4.47257812 12.20703125 4.94140625 C12.79871094 5.29074219 13.39039063 5.64007813 14 6 C14 6.66 14 7.32 14 8 C11.08256853 7.35895004 8.55578936 6.43991189 5.875 5.125 C5.19179687 4.79757812 4.50859375 4.47015625 3.8046875 4.1328125 C2 3 2 3 0 0 Z " fill="#1E003E" transform="translate(177,386)"/>
<path d="M0 0 C1.32 0.33 2.64 0.66 4 1 C4.33 2.65 4.66 4.3 5 6 C3.35 6.33 1.7 6.66 0 7 C0 4.69 0 2.38 0 0 Z " fill="#201615" transform="translate(386,312)"/>
<path d="M0 0 C2.06277107 0.14194764 4.12521031 0.28872216 6.1875 0.4375 C7.91033203 0.55931641 7.91033203 0.55931641 9.66796875 0.68359375 C12.51598171 0.95403812 15.21210482 1.37521747 18 2 C18 2.33 18 2.66 18 3 C13.71 3 9.42 3 5 3 C5 2.34 5 1.68 5 1 C3.35 1 1.7 1 0 1 C0 0.67 0 0.34 0 0 Z " fill="#0C0B74" transform="translate(254,406)"/>
<path d="M0 0 C1.4606285 2.64738916 2 3.89448334 2 7 C0.02 7.99 0.02 7.99 -2 9 C-2.185625 8.071875 -2.185625 8.071875 -2.375 7.125 C-2.87197356 4.80879168 -2.87197356 4.80879168 -5 3 C-3.35 2.01 -1.7 1.02 0 0 Z " fill="#211716" transform="translate(308,200)"/>
<path d="M0 0 C1.32 0.66 2.64 1.32 4 2 C3.67 2.99 3.34 3.98 3 5 C3.99 5 4.98 5 6 5 C6 5.66 6 6.32 6 7 C5.01 7.33 4.02 7.66 3 8 C0.9375 6.25 0.9375 6.25 -1 4 C-0.75 1.75 -0.75 1.75 0 0 Z " fill="#1F1514" transform="translate(338,391)"/>
<path d="M0 0 C0.33 0.99 0.66 1.98 1 3 C-0.76913824 3.22226864 -2.54044371 3.42733873 -4.3125 3.625 C-5.29863281 3.74101562 -6.28476562 3.85703125 -7.30078125 3.9765625 C-10 4 -10 4 -13 2 C-8.71 1.34 -4.42 0.68 0 0 Z " fill="#292F89" transform="translate(281,197)"/>
<path d="M0 0 C0.33 0 0.66 0 1 0 C1 2.64 1 5.28 1 8 C-0.875 7.75 -0.875 7.75 -3 7 C-4.25 4.9375 -4.25 4.9375 -5 3 C-3.66666667 3 -2.33333333 3 -1 3 C-0.67 2.01 -0.34 1.02 0 0 Z " fill="#1F1514" transform="translate(433,335)"/>
<path d="M0 0 C0.99 0.33 1.98 0.66 3 1 C3 2.32 3 3.64 3 5 C3.99 5 4.98 5 6 5 C6 5.66 6 6.32 6 7 C5.01 7.33 4.02 7.66 3 8 C0.9375 6.25 0.9375 6.25 -1 4 C-0.75 1.75 -0.75 1.75 0 0 Z " fill="#1F1514" transform="translate(424,338)"/>
<path d="M0 0 C0.66 0 1.32 0 2 0 C2 0.99 2 1.98 2 3 C1.34 3 0.68 3 0 3 C-0.33 3.99 -0.66 4.98 -1 6 C-1.66 5.67 -2.32 5.34 -3 5 C-1.125 1.125 -1.125 1.125 0 0 Z M-4 5 C-2 8 -2 8 -2 10 C-2.99 10 -3.98 10 -5 10 C-4.67 8.35 -4.34 6.7 -4 5 Z " fill="#281E1D" transform="translate(432,280)"/>
<path d="M0 0 C1.134375 0.020625 2.26875 0.04125 3.4375 0.0625 C3.4375 0.7225 3.4375 1.3825 3.4375 2.0625 C1.47283587 3.13025224 -0.53105359 4.12803465 -2.5625 5.0625 C-3.2225 4.7325 -3.8825 4.4025 -4.5625 4.0625 C-4.5625 -0.28271095 -4.43767807 0.077854 0 0 Z " fill="#221817" transform="translate(397.5625,254.9375)"/>
<path d="M0 0 C0 0.99 0 1.98 0 3 C-3.47325181 4.1577506 -6.36067448 4.06866652 -10 4 C-10 3.34 -10 2.68 -10 2 C-3.375 0 -3.375 0 0 0 Z " fill="#F4F5F7" transform="translate(414,291)"/>
<path d="M0 0 C-3.45680903 2.76544722 -7.14341602 4.84921278 -11 7 C-8.38092426 1.15744643 -6.57566735 -0.43837782 0 0 Z " fill="#F7F7F9" transform="translate(406,262)"/>
<path d="M0 0 C0.78375 0.04125 1.5675 0.0825 2.375 0.125 C3.035 1.445 3.695 2.765 4.375 4.125 C3.385 3.795 2.395 3.465 1.375 3.125 C1.375 2.465 1.375 1.805 1.375 1.125 C0.715 1.125 0.055 1.125 -0.625 1.125 C-0.295 2.775 0.035 4.425 0.375 6.125 C-1.275 4.805 -2.925 3.485 -4.625 2.125 C-2.625 0.125 -2.625 0.125 0 0 Z " fill="#281E1D" transform="translate(258.625,386.875)"/>
<path d="M0 0 C4.83256305 0.41421969 6.82679218 2.46413986 10 6 C3.47692308 4.52307692 3.47692308 4.52307692 1.0625 1.875 C0.711875 1.25625 0.36125 0.6375 0 0 Z " fill="#023D48" transform="translate(413,234)"/>
<path d="M0 0 C3.96 0 7.92 0 12 0 C8 3 8 3 4.3125 2.8125 C3.219375 2.544375 2.12625 2.27625 1 2 C0.67 1.34 0.34 0.68 0 0 Z " fill="#0E0333" transform="translate(233,404)"/>
<path d="M0 0 C0.33 1.32 0.66 2.64 1 4 C1.66 4 2.32 4 3 4 C3 4.66 3 5.32 3 6 C2.34 6 1.68 6 1 6 C0.34 7.32 -0.32 8.64 -1 10 C-2.31223496 6.06329512 -1.24296256 3.87511856 0 0 Z " fill="#0A0A0A" transform="translate(304,311)"/>
<path d="M0 0 C3.09592835 3.5087188 4.74194623 6.49197399 6 11 C3 10 3 10 1.83203125 7.93359375 C1.49558594 7.10988281 1.15914063 6.28617188 0.8125 5.4375 C0.46832031 4.61121094 0.12414062 3.78492188 -0.23046875 2.93359375 C-0.48441406 2.29550781 -0.73835938 1.65742188 -1 1 C-0.67 0.67 -0.34 0.34 0 0 Z " fill="#006C90" transform="translate(430,248)"/>
<path d="M0 0 C0 0.66 0 1.32 0 2 C-2.97 3.32 -5.94 4.64 -9 6 C-9 5.01 -9 4.02 -9 3 C-2.25 0 -2.25 0 0 0 Z " fill="#120808" transform="translate(345,173)"/>
<path d="M0 0 C2.31 1.98 4.62 3.96 7 6 C6.67 6.99 6.34 7.98 6 9 C5.401875 8.236875 4.80375 7.47375 4.1875 6.6875 C2.53040668 4.6516425 0.89702326 2.8021721 -1 1 C-0.67 0.67 -0.34 0.34 0 0 Z " fill="#164C92" transform="translate(340,209)"/>
<path d="M0 0 C0.99 0.495 0.99 0.495 2 1 C2.73075648 3.3140622 3.40138258 5.64828869 4 8 C3.01 8.495 3.01 8.495 2 9 C-0.29013653 5.5647952 -0.17842973 4.014669 0 0 Z " fill="#110909" transform="translate(306,191)"/>
</svg>
